<svg width="25" height="28" viewBox="0 0 25 28" fill="none" xmlns="http://www.w3.org/2000/svg" xmlns:xlink="http://www.w3.org/1999/xlink">
<path d="M24.9658 26.8853L23.4762 7.8085C23.4411 7.35262 23.0496 7 22.5789 7H2.40204C1.93132 7 1.53981 7.35263 1.50471 7.80938L0.00256015 27.0594C-0.0163405 27.3018 0.0700624 27.5415 0.240168 27.72C0.410274 27.8985 0.649682 28 0.89989 28H24.082C24.0874 28 24.0937 28 24.1 28C24.5968 28 25 27.608 25 27.1241C25 27.0419 24.9883 26.9614 24.9658 26.8853ZM1.87012 26.25L3.23637 8.75H21.7446L23.1108 26.25H1.87012Z" fill="white"/>
<path d="M12.5 0C8.91606 0 6 3.0405 6 6.77718V10.1531C6 10.6206 6.364 11 6.8125 11C7.261 11 7.625 10.6206 7.625 10.1531V6.77718C7.625 3.97382 9.81144 1.69387 12.5 1.69387C15.1886 1.69387 17.375 3.97382 17.375 6.77718V10.1531C17.375 10.6206 17.739 11 18.1875 11C18.636 11 19 10.6206 19 10.1531V6.77718C19 3.0405 16.0839 0 12.5 0Z" fill="white"/>
</svg>
