<svg width="186" height="29" viewBox="0 0 186 29" fill="none" xmlns="http://www.w3.org/2000/svg">
<path d="M40.2876 11.8307C41.4541 12.1732 42.5288 12.5544 43.5123 12.9734C44.4958 13.3953 45.3459 13.9074 46.0643 14.512C46.7798 15.1167 47.3391 15.8403 47.7405 16.6806C48.1407 17.5222 48.3408 18.5204 48.3408 19.6772V19.7957C48.3408 21.0592 48.1037 22.2141 47.6299 23.2654C47.1572 24.3186 46.5004 25.2187 45.6629 25.9677C44.8242 26.716 43.8407 27.2948 42.7107 27.7007C41.5824 28.1104 40.3475 28.3146 39.0116 28.3146C37.7727 28.3146 36.5891 28.1505 35.4591 27.8241C34.3291 27.4977 33.3034 27.0683 32.3792 26.5334C31.4567 25.9979 30.6488 25.3921 29.9561 24.7134C29.2639 24.036 28.7354 23.3302 28.3711 22.5972L32.6346 19.6778C33.0958 20.2288 33.5571 20.7236 34.0195 21.1567C34.4807 21.5898 34.9676 21.9581 35.4773 22.261C35.987 22.5633 36.5458 22.7922 37.1535 22.9508C37.7596 23.1087 38.4284 23.1871 39.1576 23.1871C39.6188 23.1871 40.0875 23.1346 40.5601 23.0303C41.0339 22.9242 41.4655 22.754 41.8543 22.5146C42.242 22.2795 42.5585 21.9834 42.8019 21.6286C43.0437 21.2714 43.1657 20.8303 43.1657 20.304C43.1657 19.9357 43.0807 19.5803 42.9102 19.2385C42.7398 18.8961 42.449 18.5605 42.0356 18.2317C41.6229 17.9016 41.0636 17.5857 40.3594 17.2828C39.6553 16.9805 38.7682 16.6837 37.6997 16.3925C36.3878 16.0513 35.2088 15.6639 34.1654 15.2283C33.1209 14.794 32.2338 14.2671 31.5046 13.6483C30.7765 13.0295 30.2172 12.2854 29.8284 11.4162C29.4395 10.5481 29.2451 9.52025 29.2451 8.33508C29.2451 7.04503 29.4709 5.88021 29.919 4.84064C30.3689 3.80107 30.9949 2.92499 31.7971 2.21241C32.5975 1.50168 33.54 0.956285 34.6215 0.57439C35.702 0.192494 36.8616 0 38.1017 0C39.3879 0 40.5544 0.157943 41.5989 0.473208C42.644 0.789706 43.579 1.19011 44.4052 1.67689C45.2301 2.16367 45.9537 2.71646 46.574 3.3328C47.1926 3.9516 47.7091 4.54943 48.1225 5.12814L43.9314 8.04511C42.8869 6.9679 41.8965 6.21275 40.9621 5.77779C40.027 5.34346 39.0487 5.12753 38.0281 5.12753C37.3964 5.12753 36.8559 5.21204 36.4061 5.38294C35.9562 5.55445 35.5868 5.76361 35.296 6.01409C35.0035 6.26458 34.7783 6.54714 34.6215 6.86241C34.463 7.17891 34.3849 7.47936 34.3849 7.76995C34.3849 8.29559 34.5126 8.74844 34.7669 9.12972C35.0223 9.51162 35.3986 9.85896 35.8964 10.1755C36.3947 10.4907 37.0139 10.7801 37.7545 11.0417C38.4951 11.3057 39.3395 11.5685 40.2876 11.8314V11.8307Z" fill="white"/>
<path d="M75.4722 21.6107C74.8901 22.6101 74.2025 23.5164 73.414 24.3296C72.6238 25.1464 71.7566 25.8485 70.8084 26.4408C69.8614 27.0325 68.8397 27.4853 67.7468 27.8018C66.6538 28.1158 65.5255 28.2738 64.359 28.2738C62.5608 28.2738 60.8663 27.9067 59.2751 27.1707C57.6838 26.4346 56.2984 25.4278 55.1205 24.1544C53.942 22.8785 53.0127 21.3793 52.3331 19.6592C51.6523 17.9373 51.3125 16.1037 51.3125 14.1578C51.3125 12.212 51.6517 10.3784 52.3331 8.65645C53.0132 6.93452 53.9426 5.43717 55.1205 4.16069C56.2984 2.88606 57.6838 1.88104 59.2751 1.14439C60.8663 0.40898 62.5608 0.0400391 64.359 0.0400391C65.5255 0.0400391 66.6544 0.197984 67.7468 0.514482C68.8397 0.829746 69.8614 1.28259 70.8084 1.87425C71.7566 2.46529 72.6238 3.16924 73.414 3.98424C74.2025 4.79862 74.8901 5.70616 75.4722 6.70502L71.2087 9.6627C70.5285 8.24308 69.5935 7.10665 68.403 6.25094C67.2131 5.39707 65.8653 4.97014 64.359 4.97014C63.2889 4.97014 62.2814 5.21321 61.3333 5.69999C60.3863 6.18677 59.5607 6.8426 58.8566 7.67055C58.1513 8.49974 57.592 9.47206 57.1804 10.5887C56.767 11.7067 56.5612 12.8956 56.5612 14.1578C56.5612 15.4189 56.767 16.6096 57.1804 17.7269C57.592 18.8436 58.1513 19.8159 58.8566 20.6451C59.5607 21.4731 60.3868 22.1301 61.3333 22.6157C62.2814 23.1025 63.2889 23.3449 64.359 23.3449C65.8648 23.3449 67.2131 22.9192 68.403 22.0641C69.5935 21.2103 70.5291 20.0726 71.2087 18.653L75.4722 21.6107V21.6107Z" fill="white"/>
<path d="M93.7149 16.9575H88.0306L85.6617 11.8312H93.7149V16.9575ZM96.7395 0.356445L96.7766 4.97004H84.7877L84.7506 23.3856H96.7395V27.9597H79.6484V0.356445H96.7395Z" fill="white"/>
<path d="M114.433 0.355957H121.175V5.16637H116.656L114.433 0.355957V0.355957ZM113.668 0.355957V27.9592H108.421V5.16698H100.914V0.356575H113.668V0.355957Z" fill="white"/>
<path d="M134.937 0C136.734 0 138.41 0.376349 139.966 1.1241C141.52 1.8737 142.868 2.88551 144.011 4.16014C145.152 5.436 146.045 6.93397 146.689 8.65589C147.332 10.3778 147.654 12.2114 147.654 14.1573C147.654 15.8132 147.423 17.3908 146.962 18.8893C146.5 20.3873 145.844 21.7415 144.994 22.9508C144.143 24.1606 143.129 25.1928 141.951 26.0454C140.773 26.9011 139.479 27.5119 138.071 27.8802L135.52 23.1864C136.54 23.1081 137.469 22.8132 138.308 22.3005C139.146 21.7872 139.868 21.1301 140.477 20.3287C141.083 19.5267 141.556 18.5932 141.897 17.5289C142.237 16.4635 142.407 15.34 142.407 14.1573C142.407 12.9228 142.219 11.7524 141.842 10.648C141.465 9.5437 140.95 8.58371 140.294 7.76933C139.638 6.95433 138.853 6.309 137.944 5.83641C137.033 5.36444 136.03 5.12753 134.937 5.12753C133.843 5.12753 132.841 5.36444 131.931 5.83641C131.019 6.309 130.23 6.95433 129.563 7.76933C128.894 8.58371 128.372 9.54308 127.994 10.648C127.618 11.7524 127.431 12.9228 127.431 14.1573C127.431 15.3937 127.619 16.5628 127.994 17.6672C128.372 18.7715 128.894 19.7315 129.563 20.5452C130.23 21.3609 131.019 22.0044 131.931 22.4776C132.841 22.9508 133.843 23.1871 134.937 23.1871V28.3152C133.139 28.3152 131.463 27.9469 129.908 27.2102C128.353 26.4742 127.005 25.4636 125.864 24.1736C124.721 22.8866 123.828 21.38 123.185 19.6599C122.541 17.938 122.219 16.1044 122.219 14.1585C122.219 12.2126 122.541 10.3791 123.185 8.65713C123.828 6.9352 124.721 5.43785 125.864 4.16137C127.005 2.88674 128.353 1.87432 129.908 1.12533C131.463 0.376967 133.139 0.00123512 134.937 0.00123512L134.937 0Z" fill="white"/>
<path d="M163.745 14.5911H159.225V19.4429H156.127V14.5911H151.645V11.2398H156.127V6.35107H159.225V11.2398H163.745V14.5911Z" fill="white"/>
<path d="M177.18 16.8781L174.811 11.7524H182.901V16.8781H177.18ZM168.762 0.316536H185.998V5.00849H173.9V27.9586H168.762V0.315918V0.316536Z" fill="#C7D30A"/>
<path d="M26.3081 27.9591L17.5394 4.60303L13.517 8.46085L18.8889 22.7711H11.7713L9.40234 27.898H20.8137L20.8365 27.9591H26.3081Z" fill="white"/>
<path d="M10.3994 0.104492L0 27.9588H5.47163L15.8345 0.104492H10.3994Z" fill="white"/>
</svg>
