<svg width="180" height="27" viewBox="0 0 180 27" fill="none" xmlns="http://www.w3.org/2000/svg">
<path d="M38.9852 11.2812C40.1141 11.6077 41.1541 11.9713 42.1059 12.3708C43.0577 12.7732 43.8803 13.2615 44.5755 13.838C45.268 14.4145 45.8093 15.1046 46.1977 15.9059C46.585 16.7083 46.7787 17.6602 46.7787 18.7632V18.8762C46.7787 20.081 46.5491 21.1823 46.0906 22.1848C45.6332 23.189 44.9976 24.0473 44.1871 24.7615C43.3755 25.4751 42.4237 26.027 41.3302 26.4141C40.2382 26.8047 39.0432 26.9994 37.7504 26.9994C36.5515 26.9994 35.406 26.8429 34.3125 26.5317C33.2189 26.2205 32.2263 25.8111 31.3319 25.301C30.4392 24.7904 29.6574 24.2126 28.987 23.5655C28.3172 22.9196 27.8057 22.2465 27.4531 21.5476L31.5791 18.7638C32.0255 19.2892 32.4718 19.761 32.9193 20.174C33.3657 20.587 33.8369 20.9382 34.3301 21.227C34.8234 21.5153 35.3641 21.7335 35.9523 21.8847C36.5388 22.0353 37.186 22.1101 37.8917 22.1101C38.338 22.1101 38.7916 22.0601 39.249 21.9606C39.7075 21.8594 40.1251 21.6971 40.5014 21.4688C40.8766 21.2447 41.1828 20.9623 41.4184 20.624C41.6524 20.2834 41.7705 19.8628 41.7705 19.3609C41.7705 19.0097 41.6882 18.6709 41.5233 18.3449C41.3583 18.0184 41.0769 17.6984 40.6769 17.3848C40.2774 17.0701 39.7362 16.7689 39.0547 16.48C38.3733 16.1918 37.5148 15.9088 36.4808 15.6311C35.2113 15.3058 34.0702 14.9363 33.0605 14.521C32.0497 14.1068 31.1912 13.6044 30.4855 13.0144C29.781 12.4243 29.2397 11.7148 28.8634 10.8859C28.4871 10.0582 28.299 9.07805 28.299 7.94793C28.299 6.7178 28.5174 5.60709 28.9511 4.6158C29.3864 3.62452 29.9923 2.78913 30.7686 2.10965C31.5432 1.43193 32.4553 0.911868 33.5019 0.54771C34.5475 0.183553 35.6698 0 36.8698 0C38.1146 0 39.2434 0.150607 40.2543 0.451228C41.2656 0.753026 42.1705 1.13483 42.97 1.599C43.7683 2.06317 44.4685 2.59028 45.0688 3.17799C45.6675 3.76806 46.1673 4.33812 46.5674 4.88994L42.5114 7.67143C41.5006 6.64426 40.5423 5.92418 39.6379 5.50943C38.7331 5.09526 37.7863 4.88936 36.7986 4.88936C36.1873 4.88936 35.6642 4.96995 35.2289 5.13291C34.7936 5.29646 34.4361 5.4959 34.1547 5.73475C33.8716 5.9736 33.6537 6.24304 33.5019 6.54366C33.3486 6.84546 33.273 7.13196 33.273 7.40905C33.273 7.91028 33.3966 8.34209 33.6426 8.70566C33.8898 9.06982 34.254 9.40103 34.7357 9.70283C35.2179 10.0034 35.8171 10.2794 36.5338 10.5288C37.2505 10.7806 38.0677 11.0312 38.9852 11.2818V11.2812Z" fill="white"/>
<path d="M73.0366 20.6067C72.4733 21.5597 71.8079 22.424 71.0448 23.1993C70.2801 23.9783 69.4408 24.6477 68.5233 25.2125C67.6068 25.7767 66.6181 26.2085 65.5604 26.5103C64.5027 26.8097 63.4108 26.9603 62.2819 26.9603C60.5417 26.9603 58.9019 26.6103 57.362 25.9085C55.822 25.2066 54.4813 24.2465 53.3414 23.0323C52.2009 21.8157 51.3016 20.3861 50.6439 18.7459C49.9851 17.104 49.6562 15.3555 49.6562 13.5001C49.6562 11.6446 49.9845 9.89613 50.6439 8.25418C51.3021 6.61224 52.2015 5.18444 53.3414 3.96725C54.4813 2.75182 55.822 1.79348 57.362 1.09105C58.9019 0.389799 60.5417 0.0379944 62.2819 0.0379944C63.4108 0.0379944 64.5032 0.188603 65.5604 0.4904C66.6181 0.791021 67.6068 1.22283 68.5233 1.78701C69.4408 2.3506 70.2801 3.02185 71.0448 3.79899C71.8079 4.57555 72.4733 5.44094 73.0366 6.39339L68.9106 9.2137C68.2524 7.86002 67.3475 6.77638 66.1955 5.96041C65.044 5.1462 63.7396 4.7391 62.2819 4.7391C61.2463 4.7391 60.2713 4.97088 59.3538 5.43505C58.4373 5.89922 57.6384 6.52459 56.957 7.31408C56.2745 8.10476 55.7332 9.03191 55.3348 10.0967C54.9348 11.1627 54.7356 12.2964 54.7356 13.5001C54.7356 14.7025 54.9348 15.838 55.3348 16.9034C55.7332 17.9682 56.2745 18.8953 56.957 19.686C57.6384 20.4755 58.4379 21.1021 59.3538 21.565C60.2713 22.0292 61.2463 22.2604 62.2819 22.2604C63.7391 22.2604 65.044 21.8545 66.1955 21.0391C67.3475 20.2249 68.2529 19.1401 68.9106 17.7864L73.0366 20.6067V20.6067Z" fill="white"/>
<path d="M90.6909 16.1698H85.1899L82.8974 11.2816H90.6909V16.1698ZM93.6179 0.339874L93.6538 4.73918H82.0516L82.0157 22.2993H93.6179V26.661H77.0781V0.339874H93.6179Z" fill="white"/>
<path d="M110.743 0.339264H117.267V4.92624H112.894L110.743 0.339264V0.339264ZM110.003 0.339264V26.6604H104.924V4.92682H97.6602V0.339853H110.003V0.339264Z" fill="white"/>
<path d="M130.581 0C132.32 0 133.943 0.358868 135.448 1.07189C136.952 1.78667 138.257 2.75148 139.362 3.96691C140.467 5.18351 141.331 6.6119 141.954 8.25384C142.577 9.89579 142.889 11.6442 142.889 13.4997C142.889 15.0787 142.665 16.583 142.218 18.012C141.772 19.4404 141.137 20.7317 140.314 21.8847C139.49 23.0384 138.509 24.0226 137.369 24.8356C136.23 25.6516 134.977 26.234 133.614 26.5852L131.145 22.1095C132.133 22.0348 133.032 21.7535 133.844 21.2647C134.654 20.7752 135.353 20.1487 135.943 19.3845C136.529 18.6197 136.987 17.7296 137.316 16.7148C137.646 15.6988 137.811 14.6275 137.811 13.4997C137.811 12.3225 137.628 11.2065 137.264 10.1535C136.899 9.10041 136.4 8.18501 135.766 7.40846C135.131 6.63131 134.371 6.01595 133.491 5.56532C132.61 5.11527 131.64 4.88936 130.582 4.88936C129.523 4.88936 128.553 5.11527 127.672 5.56532C126.79 6.01595 126.026 6.63131 125.381 7.40846C124.733 8.18501 124.228 9.09982 123.863 10.1535C123.498 11.2065 123.318 12.3225 123.318 13.4997C123.318 14.6787 123.499 15.7935 123.863 16.8465C124.228 17.8996 124.733 18.815 125.381 19.591C126.026 20.3687 126.79 20.9823 127.672 21.4335C128.553 21.8847 129.523 22.1101 130.582 22.1101V27C128.842 27 127.219 26.6488 125.714 25.9464C124.21 25.2445 122.905 24.2809 121.801 23.0507C120.695 21.8236 119.831 20.3869 119.209 18.7467C118.585 17.1048 118.273 15.3564 118.273 13.5009C118.273 11.6454 118.585 9.89696 119.209 8.25502C119.831 6.61308 120.695 5.18527 121.801 3.96808C122.905 2.75266 124.21 1.78726 125.714 1.07306C127.219 0.359457 128.842 0.00117775 130.582 0.00117775L130.581 0Z" fill="white"/>
<path d="M158.464 13.9133H154.09V18.5397H151.092V13.9133H146.754V10.7177H151.092V6.05603H154.09V10.7177H158.464V13.9133Z" fill="white"/>
<path d="M171.467 16.094L169.174 11.2064H177.004V16.094H171.467ZM163.32 0.301675H180.001V4.77569H168.293V26.6598H163.32V0.301086V0.301675Z" fill="#C7D30A"/>
<path d="M25.4581 26.6606L16.9722 4.38931L13.0796 8.06794L18.2782 21.7136H11.3902L9.09766 26.6023H20.1409L20.163 26.6606H25.4581Z" fill="white"/>
<path d="M10.0639 0.0996094L0 26.6602H5.29513L15.3237 0.0996094H10.0639Z" fill="white"/>
</svg>
