<svg width="60" height="50" viewBox="0 0 60 50" fill="none" xmlns="http://www.w3.org/2000/svg">
<path fill-rule="evenodd" clip-rule="evenodd" d="M21.2617 0.110522C16.9407 0.921141 13.9172 4.94398 14.4081 9.22949C14.5467 10.4395 14.7955 11.2482 15.3715 12.3612C15.8293 13.2461 16.1465 13.5782 22.9247 20.27L29.9999 27.2551L37.0752 20.27C43.862 13.5697 44.1702 13.247 44.6332 12.3547C46.1087 9.51178 45.9393 6.17221 44.1919 3.65087C41.8396 0.256459 37.5793 -0.916809 33.756 0.776704C32.7396 1.22698 31.9982 1.69666 30.9088 2.58048L29.9999 3.3179L29.0911 2.58048C28.0017 1.69666 27.2603 1.22698 26.2439 0.776704C24.6964 0.0913559 22.751 -0.168767 21.2617 0.110522ZM2.99673 2.38443C1.8978 2.63936 0.854803 3.49709 0.341748 4.56794L0.0375508 5.20295L0.0061225 17.2019C-0.0142824 24.9543 0.0166768 29.4249 0.0936056 29.8341C0.158925 30.1824 0.3842 30.8354 0.594112 31.2851C0.950143 32.048 1.30629 32.434 5.9178 37.0555C9.25295 40.3978 10.9497 42.1812 11.1363 42.5404C11.4039 43.0557 11.4146 43.1828 11.4713 46.5363L11.53 50H18.4489H25.3678V43.2458C25.3678 38.1068 25.3307 36.3122 25.213 35.7411C25.0276 34.8424 24.3203 33.3509 23.7233 32.5993C23.0864 31.7976 10.9693 20.728 10.3232 20.3575C10.0194 20.1834 9.67957 20.0406 9.56793 20.04C9.45231 20.0395 9.34137 19.9273 9.31006 19.7793C9.2798 19.6364 8.93585 16.3727 8.54546 12.5263C8.15519 8.68015 7.75542 5.26634 7.65703 4.94017C7.10175 3.09911 4.96569 1.92769 2.99673 2.38443ZM23.8236 2.37739C25.4419 2.60784 26.6005 3.29966 28.6206 5.24232L29.9971 6.56603L31.4455 5.17836C33.4675 3.24112 34.5484 2.6075 36.2347 2.37104C39.7059 1.88428 42.8106 4.18463 43.272 7.58516C43.3816 8.3922 43.3716 8.70324 43.2117 9.47484C42.8108 11.408 42.9498 11.2411 36.1426 17.9609L30.0024 24.0223L24.0663 18.1918C20.4012 14.592 17.954 12.098 17.6699 11.6734C16.4096 9.79003 16.3587 7.24826 17.541 5.2317C18.4248 3.72407 20.2565 2.55658 22.0842 2.33594C22.7413 2.25651 23.0213 2.2632 23.8236 2.37739ZM54.9631 2.43212C53.7304 2.82259 52.6777 3.83018 52.3428 4.94017C52.2445 5.26634 51.8447 8.68015 51.4544 12.5263C51.064 16.3727 50.7201 19.6364 50.6898 19.7793C50.6585 19.9273 50.5476 20.0395 50.4319 20.04C50.3203 20.0406 49.9805 20.1834 49.6767 20.3575C49.0306 20.728 36.9135 31.7976 36.2766 32.5993C35.6795 33.3509 34.9723 34.8424 34.7869 35.7411C34.6691 36.3122 34.6321 38.1068 34.6321 43.2458V50H41.551H48.4699L48.5285 46.5363C48.5864 43.1178 48.591 43.0655 48.8803 42.5259C49.0757 42.1616 50.81 40.339 54.0794 37.0622C58.6185 32.5128 59.015 32.0834 59.3845 31.3166C59.6043 30.8608 59.8383 30.1983 59.9046 29.8443C59.9837 29.4227 60.0144 25.0617 59.9938 17.2019L59.9623 5.20295L59.6581 4.56794C59.2732 3.76471 58.4961 2.9952 57.7096 2.63867C56.929 2.28468 55.7163 2.19347 54.9631 2.43212ZM4.67158 4.78304C5.47569 5.20642 5.45681 5.11244 6.20101 12.3973C6.57521 16.0605 6.91201 19.2954 6.94954 19.586L7.01779 20.1144L6.38301 20.5448C5.27211 21.298 4.74769 22.2794 4.73783 23.6238C4.73232 24.3792 4.78169 24.5957 5.10899 25.2503C5.46104 25.9544 5.77086 26.2591 9.68016 29.7477C11.9866 31.8058 14.0938 33.6871 14.363 33.9284L14.8521 34.3669L15.3832 33.8078C15.6753 33.5004 16.0215 33.1147 16.1525 32.9508L16.3907 32.6527L11.8783 28.6262C9.25682 26.287 7.29232 24.4472 7.19053 24.2358C6.96514 23.7682 6.96912 23.4599 7.20683 22.9667C7.4443 22.4739 7.89825 22.2328 8.58803 22.2328C9.2234 22.2328 8.53713 21.6518 16.1119 28.6027C19.7154 31.9094 21.8721 33.9727 22.1218 34.3521C22.3359 34.6776 22.6252 35.2401 22.7645 35.6023C23.0098 36.2397 23.0191 36.4438 23.0546 42.0047L23.0912 47.7486H18.4639H13.8365L13.792 45.2374C13.7433 42.4877 13.6514 42.0505 12.8875 40.9306C12.7035 40.6607 10.3888 38.2743 7.74404 35.6273C4.79213 32.673 2.82845 30.6178 2.659 30.3049L2.38294 29.7951L2.35151 17.7469C2.32044 5.82457 2.32255 5.6948 2.55744 5.3206C3.00177 4.61274 3.90956 4.38194 4.67158 4.78304ZM56.8058 4.75337C57.0241 4.85543 57.3102 5.1099 57.4413 5.31887C57.6777 5.69537 57.6796 5.8061 57.6484 17.7469L57.6169 29.7951L57.3409 30.3049C57.1714 30.6178 55.2077 32.673 52.2558 35.6273C49.6111 38.2743 47.2964 40.6607 47.1124 40.9306C46.3485 42.0505 46.2566 42.4877 46.2079 45.2374L46.1633 47.7486H41.536H36.9086L36.9452 42.0047C36.9808 36.4438 36.99 36.2397 37.2354 35.6023C37.3747 35.2401 37.664 34.6783 37.8781 34.3538C38.1255 33.9788 40.3154 31.884 43.8884 28.6044C51.4677 21.6477 50.7768 22.2328 51.4118 22.2328C52.1016 22.2328 52.5556 22.4739 52.793 22.9667C53.2958 24.0099 53.2764 24.0334 48.1739 28.5839C44.044 32.2669 43.6251 32.6734 43.7611 32.8644C43.8436 32.9805 44.1897 33.3654 44.53 33.7196L45.1488 34.3638L45.6367 33.9321C45.905 33.6946 48.0109 31.816 50.3165 29.7575C54.2323 26.2614 54.5337 25.9647 54.8885 25.2549C55.2165 24.5992 55.2681 24.376 55.2658 23.6238C55.2618 22.2669 54.6736 21.2242 53.47 20.44C52.9949 20.1304 52.9786 20.1 53.044 19.6456C53.0814 19.3858 53.4193 16.1508 53.7946 12.4566C54.5417 5.10724 54.5215 5.2078 55.3283 4.78304C55.8299 4.51899 56.2845 4.50987 56.8058 4.75337Z" fill="#C7D30A"/>
</svg>
