<svg width="105" height="49" viewBox="0 0 105 49" fill="none" xmlns="http://www.w3.org/2000/svg">
<path fill-rule="evenodd" clip-rule="evenodd" d="M0.839631 12.2339C0.778817 12.3941 0.757291 13.1306 0.791982 13.8708L0.854886 15.2168L2.47452 15.2783L4.09414 15.3397V21.6545V27.9693L5.60928 27.9074L7.12442 27.8455V19.9526V12.0596L4.03751 12.0013C1.56355 11.9546 0.928659 12.0009 0.839631 12.2339ZM15.4259 12.1786C14.2449 12.4122 12.5511 13.3564 11.8803 14.1547C11.5841 14.5073 11.1026 15.3168 10.8103 15.9535C10.329 17.0015 10.2778 17.3702 10.2703 19.8473C10.26 23.0879 10.5743 24.2581 11.8454 25.7121C14.889 29.1949 20.3719 28.2894 22.3516 23.9773C22.7429 23.1251 22.7982 22.6261 22.7982 19.9526C22.7982 17.0345 22.7725 16.8478 22.2118 15.698C20.965 13.1409 18.0923 11.6509 15.4259 12.1786ZM31.0997 12.1786C29.9188 12.4122 28.2249 13.3564 27.5541 14.1547C27.258 14.5073 26.7765 15.3168 26.4841 15.9535C26.0028 17.0015 25.9516 17.3702 25.9441 19.8473C25.9338 23.0879 26.2482 24.2581 27.5192 25.7121C30.5628 29.1949 36.0458 28.2894 38.0255 23.9773C38.4167 23.1251 38.4721 22.6261 38.4721 19.9526C38.4721 17.0345 38.4464 16.8478 37.8857 15.698C36.6389 13.1409 33.7662 11.6509 31.0997 12.1786ZM41.593 12.2303C41.5314 12.3924 41.5092 13.1306 41.5439 13.8708L41.6068 15.2168H43.1742H44.7416V13.6382V12.0596L43.2235 11.9978C42.0725 11.9508 41.6781 12.007 41.593 12.2303ZM46.6225 18.945C43.9788 22.6646 41.7884 25.8173 41.7552 25.951C41.7218 26.0847 42.2449 26.5829 42.9176 27.0581L44.1404 27.9221L49.0387 21.0582C51.7328 17.2831 53.966 14.1236 54.0013 14.0373C54.0713 13.8668 51.8665 12.1594 51.5948 12.1735C51.5037 12.1781 49.2661 15.2254 46.6225 18.945ZM18.009 15.6601C19.294 16.2743 19.5592 17.0132 19.5582 19.9774C19.5575 22.1908 19.4959 22.685 19.1494 23.2573C17.977 25.1941 14.7812 25.0318 13.8173 22.9864C13.5317 22.3802 13.478 21.7452 13.534 19.6354C13.6019 17.0724 13.6125 17.0219 14.2299 16.3658C14.5747 15.9992 15.0449 15.6203 15.2748 15.5239C15.9628 15.2355 17.2549 15.3 18.009 15.6601ZM33.6828 15.6601C34.9678 16.2743 35.233 17.0132 35.232 19.9774C35.2314 22.1908 35.1697 22.685 34.8232 23.2573C33.6508 25.1941 30.455 25.0318 29.4912 22.9864C29.2055 22.3802 29.1518 21.7452 29.2078 19.6354C29.2757 17.0724 29.2864 17.0219 29.9037 16.3658C30.2485 15.9992 30.7188 15.6203 30.9486 15.5239C31.6366 15.2355 32.9288 15.3 33.6828 15.6601ZM50.9497 26.3196L51.0111 27.8455H52.5785H54.1459L54.2073 26.3196L54.2688 24.7936H52.5785H50.8882L50.9497 26.3196ZM4.34414 40.8859V48.7881H5.90756H7.47097L7.52719 44.0359L7.5834 39.2838L10.6137 44.0279L13.6439 48.7723L15.2636 48.7801L16.8832 48.7881V40.8859V32.9837L15.3681 33.0456L13.8529 33.1075L13.7484 37.9822L13.6439 42.8566L10.5067 37.9822L7.3694 33.1075L5.85677 33.0456L4.34414 32.9837V40.8859ZM24.978 33.2213C23.0618 33.7004 21.4662 34.991 20.5989 36.7641C20.1457 37.6906 20.1193 38.0068 20.0575 43.2631L19.9927 48.7881H21.5726H23.1527V47.2095V45.6309H26.2875H29.4223V47.2095V48.7881H31.0024H32.5823L32.5175 43.2631C32.4557 38.0068 32.4293 37.6906 31.9761 36.7641C30.6983 34.1523 27.5765 32.5716 24.978 33.2213ZM51.3656 38.2259C51.3656 42.2494 51.4375 43.6933 51.6781 44.5095C52.054 45.7844 53.3211 47.3042 54.6778 48.1074C55.5526 48.6252 55.8483 48.6829 57.6352 48.6829C59.422 48.6829 59.7177 48.6252 60.5925 48.1074C61.9239 47.319 63.1383 45.8675 63.5561 44.5649C63.8433 43.6693 63.9047 42.5556 63.9047 38.24V33.0022H62.3373H60.7699V38.1097C60.7699 42.6762 60.729 43.2946 60.3829 43.9505C59.1938 46.2043 56.0765 46.2043 54.8874 43.9505C54.5414 43.2946 54.5004 42.6762 54.5004 38.1097V33.0022H52.933H51.3656V38.2259ZM67.1962 33.1241C67.1099 33.2115 67.0395 36.7715 67.0395 41.0356V48.7881H68.7113H70.3832L70.3851 46.1045L70.387 43.4209L71.6747 46.1045L72.9625 48.7881H74.7031C75.6605 48.7881 76.4438 48.7416 76.4438 48.6848C76.4438 48.6279 75.762 47.1961 74.9286 45.503C73.4916 42.583 73.4344 42.4121 73.8176 42.186C74.04 42.0549 74.6264 41.5818 75.1207 41.1345C77.4711 39.0078 76.9138 35.1194 74.0467 33.6425C73.1144 33.1622 72.7188 33.1001 70.1805 33.0363C68.6254 32.9972 67.2825 33.0368 67.1962 33.1241ZM84.5386 33.2213C82.6224 33.7004 81.0268 34.991 80.1595 36.7641C79.7062 37.6906 79.6799 38.0068 79.618 43.2631L79.5532 48.7881H81.1332H82.7133V47.2095V45.6309H85.8481H88.9828V47.2095V48.7881H90.563H92.1429L92.0781 43.2631C92.0162 38.0068 91.9899 37.6906 91.5366 36.7641C90.2589 34.1523 87.1371 32.5716 84.5386 33.2213ZM35.6918 34.7913V36.3699H37.9875H40.2832L40.3386 42.6316L40.3939 48.8934H41.9613H43.5287L43.5841 42.6316L43.6395 36.3699H45.9352H48.2309V34.7913V33.2127H41.9613H35.6918V34.7913ZM95.2523 41.0004V48.7881H99.9545H104.657V47.2095V45.6309H101.522H98.3871V39.4218V33.2127H96.8197H95.2523V41.0004ZM73.063 36.9192C73.4218 37.3349 73.513 37.6248 73.4124 38.0308C73.169 39.0135 72.7182 39.3166 71.5002 39.3166H70.3832V37.7087V36.1007L71.4804 36.2289C72.3136 36.3263 72.6944 36.4924 73.063 36.9192ZM27.9807 36.8477C29.0783 37.5862 29.4216 38.4875 29.4219 40.6321L29.4223 42.4738H26.2875H23.1527L23.1532 40.6321C23.1534 38.4875 23.4967 37.5862 24.5943 36.8477C25.0812 36.52 25.6133 36.3699 26.2875 36.3699C26.9617 36.3699 27.4938 36.52 27.9807 36.8477ZM87.5412 36.8477C88.6388 37.5862 88.9822 38.4875 88.9824 40.6321L88.9828 42.4738H85.8481H82.7133L82.7137 40.6321C82.7139 38.4875 83.0573 37.5862 84.1549 36.8477C84.6418 36.52 85.1739 36.3699 85.8481 36.3699C86.5222 36.3699 87.0543 36.52 87.5412 36.8477Z" fill="#C7D30A"/>
<path fill-rule="evenodd" clip-rule="evenodd" d="M74.3711 0.0032281C74.3593 0.0393455 74.2511 0.423628 74.1308 0.857201C73.7755 2.13838 73.3823 3.03852 72.7402 4.0413C72.2008 4.88341 71.5836 5.49516 70.5617 6.20049C70.0746 6.53663 69.532 6.92388 69.356 7.06105C67.6409 8.39734 66.589 9.73626 65.9198 11.4351C65.6033 12.2384 65.4542 12.8766 65.3712 13.7825C65.2535 15.0669 65.4892 16.4726 66.0123 17.6072C66.5537 18.7814 67.6965 19.8572 68.8319 20.2616L69.0108 20.3253L69.0332 21.0927C69.0517 21.7228 69.1086 22.2262 69.2365 22.8905C69.2568 22.9962 68.0907 23.0485 67.1149 22.9857C66.2719 22.9314 65.4426 22.7992 64.8944 22.6317C64.7396 22.5844 64.5952 22.5644 64.5737 22.5871C64.5212 22.6424 63.9761 24.1937 64.0008 24.2172C64.0439 24.2582 65.0633 24.5197 65.4875 24.5986C66.381 24.7647 67.1291 24.8125 68.2839 24.7775C68.9029 24.7587 69.5294 24.7285 69.6761 24.7105L69.9429 24.6777L70.2297 25.1274C71.0675 26.4409 72.5734 27.4462 74.3517 27.8792C74.7843 27.9845 74.9995 28.0008 75.9456 28C78.0987 27.9979 79.9584 27.5386 81.9284 26.5222C83.383 25.7718 85.1242 24.4202 86.621 22.8798C87.935 21.5274 88.8149 20.3052 89.5483 18.8137C91.2755 15.3014 91.4645 11.184 90.099 6.8203C89.7916 5.838 89.1093 3.997 89.0634 4.0262C89.0413 4.0402 88.7736 4.36586 88.4683 4.74987C87.1434 6.41664 85.5387 7.76292 83.8693 8.60822C82.9602 9.06853 82.3635 9.27217 81.3713 9.46077C80.955 9.53986 80.2843 9.67165 79.8808 9.75366L79.1471 9.90274V9.31119C79.1471 6.88441 78.24 4.4713 76.488 2.23702C75.9621 1.56654 74.3993 -0.0826193 74.3711 0.0032281ZM75.4021 3.68907C76.3808 4.94555 77.0158 6.41346 77.2495 7.95992C77.354 8.65153 77.3958 9.5369 77.3469 10.0238L77.3063 10.428L76.7193 10.6398C76.3965 10.7563 75.8437 10.9969 75.4908 11.1744C73.4748 12.1889 71.9036 13.5733 70.7454 15.3556C70.3425 15.9756 69.7518 17.2212 69.522 17.9355C69.3854 18.3596 69.314 18.5097 69.2515 18.5039C69.0829 18.4884 68.5596 18.1206 68.2408 17.7936C67.4264 16.9583 67.0421 15.721 67.1041 14.1342C67.1409 13.1918 67.2391 12.7629 67.6339 11.8209C68.0597 10.8051 68.9031 9.71826 69.9314 8.86006C70.2018 8.63441 70.8193 8.17278 71.3035 7.83422C71.7877 7.49572 72.3794 7.04842 72.6184 6.84017C73.5419 6.03555 74.4071 4.86332 74.955 3.67447C75.0411 3.48768 75.1148 3.33481 75.1188 3.33481C75.1229 3.33481 75.2503 3.49421 75.4021 3.68907ZM88.5859 7.82939C89.0563 9.42251 89.3375 11.5874 89.2605 13.0228C89.1179 15.6824 88.3458 17.8678 86.788 20.0213C85.8874 21.2663 83.8212 23.2189 82.3486 24.2166C79.7267 25.993 76.461 26.6543 74.0514 25.8968C73.6093 25.7577 73.2013 25.5651 72.829 25.3194C72.4694 25.0822 71.8081 24.4173 71.8736 24.3589C71.8975 24.3376 72.1332 24.2634 72.3973 24.194C73.1337 24.0005 74.5052 23.5036 75.3053 23.1404C78.0298 21.9036 80.4022 20.1874 82.955 17.6064L84.0683 16.4809L83.4352 15.8666L82.8021 15.2522L81.8683 16.2017C81.3548 16.7238 80.8025 17.2727 80.6411 17.4214C78.2456 19.628 75.6438 21.2398 73.0241 22.1402C72.3938 22.3568 71.0374 22.7306 71.0055 22.6965C70.9987 22.6893 70.9535 22.5352 70.9049 22.3541C70.8486 22.144 70.8062 21.7068 70.7878 21.1465C70.7614 20.3482 70.7713 20.2053 70.8964 19.5765C71.5575 16.2554 73.7743 13.7188 77.1992 12.3644C78.2338 11.9553 79.4737 11.6157 80.7056 11.4041C82.6809 11.0648 84.1889 10.5271 85.6834 9.62895C86.495 9.1412 87.6641 8.23349 88.1623 7.70425C88.2931 7.56526 88.4169 7.45153 88.4373 7.45153C88.4576 7.45153 88.5245 7.62158 88.5859 7.82939ZM84.4295 13.2738C84.1507 13.6346 83.9312 13.9481 83.9416 13.9704C83.9681 14.0269 85.1901 15.0816 85.2267 15.0795C85.2631 15.0775 86.2598 13.7963 86.2847 13.7197C86.2999 13.6727 85.0811 12.6566 84.9753 12.6282C84.9539 12.6224 84.7083 12.9129 84.4295 13.2738Z" fill="#C7D30A"/>
</svg>
