<svg width="20" height="21" viewBox="0 0 20 21" fill="none" xmlns="http://www.w3.org/2000/svg" xmlns:xlink="http://www.w3.org/1999/xlink">
<path d="M1.00056 15.2252V18.0854C0.999535 18.3509 1.05117 18.6138 1.15214 18.8571C1.25312 19.1004 1.40122 19.3188 1.58695 19.4983C1.77268 19.6778 1.99196 19.8144 2.23073 19.8995C2.4695 19.9846 2.7225 20.0162 2.97353 19.9923C5.75848 19.6735 8.43361 18.671 10.784 17.0653C12.9707 15.6014 14.8247 13.6484 16.2142 11.3447C17.7437 8.85744 18.6956 6.02557 18.9927 3.07855C19.0153 2.8149 18.9855 2.54917 18.9053 2.2983C18.8251 2.04742 18.6962 1.81688 18.5268 1.62136C18.3574 1.42585 18.1511 1.26963 17.9213 1.16267C17.6914 1.05571 17.4429 1.00034 17.1916 1.00009H14.4765C14.0373 0.995538 13.6115 1.15939 13.2785 1.4611C12.9455 1.76282 12.7279 2.18181 12.6665 2.63998C12.5519 3.55533 12.3393 4.45408 12.0329 5.31909C11.9112 5.66035 11.8848 6.03122 11.957 6.38777C12.0292 6.74431 12.1969 7.07159 12.4402 7.33082L13.5896 8.54166C12.3012 10.9286 10.4252 12.9049 8.15938 14.2622L7.00999 13.0513C6.76392 12.795 6.45325 12.6184 6.1148 12.5423C5.77635 12.4663 5.4243 12.494 5.10037 12.6223C4.27925 12.9451 3.42611 13.169 2.55722 13.2897C2.11758 13.355 1.71608 13.5883 1.42906 13.9452C1.14205 14.302 0.989545 14.7576 1.00056 15.2252Z" stroke="white" stroke-width="1.3" stroke-linecap="round" stroke-linejoin="round"/>
</svg>
