<svg width="50" height="50" viewBox="0 0 50 50" fill="none" xmlns="http://www.w3.org/2000/svg">
<path fill-rule="evenodd" clip-rule="evenodd" d="M2.6393 0.0602146C1.68475 0.299511 0.71955 1.09345 0.269501 2.00929L0 2.55787V12.6263V22.6947L0.256598 23.2324C0.618964 23.9913 1.10899 24.5125 1.82542 24.901L2.44379 25.2363L7.16031 25.2642C9.75445 25.2797 11.8768 25.3228 11.8768 25.36C11.8768 25.3973 10.5154 26.7923 8.85152 28.46C5.31222 32.0075 5.27752 32.0568 5.28006 33.5452C5.2828 35.1247 4.8261 34.5748 12.6497 42.4204C20.5581 50.3512 20.0979 49.9674 21.7009 49.9674C23.2703 49.9674 23.0533 50.1394 29.0078 44.1776C34.0988 39.0804 34.1642 39.01 34.1621 38.6261C34.1587 38.0343 33.7199 37.6019 33.1229 37.6019C32.8939 37.6019 32.0434 38.408 27.7645 42.6805C24.2682 46.1716 22.5648 47.8064 22.315 47.9103C21.8852 48.0889 21.508 48.0967 21.1403 47.9347C20.7459 47.7609 7.47459 34.4894 7.31623 34.1106C7.14497 33.7007 7.15015 33.3783 7.335 32.9311C7.44155 32.6733 11.1708 28.8809 20.1644 19.8844L32.8435 7.20107H39.3857C45.3952 7.20107 45.9428 7.21456 46.1108 7.36657C46.2867 7.52581 46.2505 7.57527 45.1568 8.67185L44.02 9.81163L43.6131 9.6696C43.3502 9.57791 42.9813 9.54321 42.5709 9.57155C41.5258 9.64389 40.6945 10.1833 40.1707 11.1288C39.9153 11.59 39.8827 11.7426 39.8827 12.4797C39.8827 13.2167 39.9153 13.3693 40.1707 13.8305C40.4928 14.4118 40.9089 14.8153 41.5228 15.1416C42.1155 15.4567 43.4172 15.4567 44.01 15.1416C45.0237 14.6028 45.6003 13.7515 45.6739 12.6849C45.7028 12.2652 45.6688 11.8977 45.5764 11.6329L45.4344 11.226L46.5742 10.0892C47.6708 8.9955 47.7202 8.95933 47.8795 9.13529C48.0315 9.30322 48.045 9.85073 48.045 15.8585V22.3988L43.2551 27.1923C38.6844 31.7665 38.4653 32.002 38.4653 32.3425C38.4653 33.0485 39.1576 33.5262 39.7849 33.2531C39.9462 33.1829 42.3106 30.8875 45.0391 28.1522L50 23.179V15.8701V8.56119L49.5472 8.07712L49.0944 7.59306L49.495 7.15845C50.0777 6.52629 50.149 5.98152 49.7067 5.5393C49.2645 5.09707 48.7197 5.16833 48.0876 5.75103L47.653 6.15161L47.1689 5.69883L46.6848 5.24604H45.9726H45.2604L42.6442 2.63118L40.028 0.0163241L21.4803 0.00146582C11.279 -0.00664757 2.80059 0.0197454 2.6393 0.0602146ZM40.8176 3.58064L42.522 5.23881L37.2942 5.24242L32.0664 5.24604L26.2865 11.0229L20.5066 16.7997L20.4401 16.277C20.4035 15.9895 20.264 15.5274 20.1301 15.2499C19.2283 13.3811 16.6809 13.0336 15.309 14.5923C14.8253 15.1416 14.6139 15.7486 14.6139 16.587C14.6139 18.1207 15.8657 19.4164 17.35 19.4191L17.8867 19.42L15.9335 21.3751L13.9804 23.3301H8.49531H3.01036L2.68719 23.1102C2.50948 22.9892 2.27204 22.7661 2.15953 22.6143C1.95523 22.3386 1.95503 22.3273 1.95503 12.636V2.93363L2.21701 2.59022C2.76764 1.86823 1.09404 1.92717 21.1206 1.92473L39.1132 1.92248L40.8176 3.58064ZM8.20372 6.02766C5.84731 6.96266 5.6824 10.263 7.93676 11.3701C8.41975 11.6072 8.62102 11.6484 9.28641 11.6459C9.93861 11.6436 10.1496 11.6004 10.5572 11.3858C13.2322 9.978 12.3905 6.01691 9.38416 5.8653C8.86618 5.8391 8.57938 5.87859 8.20372 6.02766ZM15.738 6.30694C15.3329 6.55611 8.94428 17.8573 8.94428 18.3245C8.94428 18.7816 9.38612 19.2398 9.8393 19.2526C10.0328 19.2582 10.3009 19.1908 10.4349 19.103C10.5905 19.001 11.8476 16.8731 13.9169 13.2088C17.2566 7.29501 17.3343 7.13147 17.0547 6.60919C16.9399 6.39443 16.4682 6.12561 16.2072 6.1262C16.1105 6.12639 15.8993 6.20772 15.738 6.30694ZM9.71212 7.92688C10.5986 8.38534 10.2051 9.74262 9.18563 9.74262C9.05455 9.74262 8.80469 9.61515 8.6304 9.45933C8.36804 9.22493 8.31329 9.10528 8.31329 8.7651C8.31329 8.42493 8.36804 8.30528 8.6304 8.07087C8.98006 7.75836 9.30313 7.71535 9.71212 7.92688ZM43.4115 11.8345C43.651 12.074 43.7439 12.2543 43.7439 12.4797C43.7439 12.7051 43.651 12.8853 43.4115 13.1248C43.172 13.3643 42.9918 13.4572 42.7664 13.4572C42.541 13.4572 42.3607 13.3643 42.1212 13.1248C41.8817 12.8853 41.7889 12.7051 41.7889 12.4797C41.7889 12.0451 42.3318 11.5021 42.7664 11.5021C42.9918 11.5021 43.172 11.595 43.4115 11.8345ZM33.6169 14.509C33.5041 14.5273 32.8553 15.1046 32.1751 15.7921C31.0185 16.961 30.9384 17.0665 30.9384 17.4213C30.9384 17.7886 31.0353 17.8977 33.9674 20.8342L36.9964 23.8677H37.4406C37.8796 23.8677 37.8992 23.8532 39.1037 22.6382C40.227 21.5051 40.3226 21.3801 40.3226 21.0433C40.3226 20.576 40.1927 20.3387 39.8358 20.1542C39.2934 19.8738 39.0856 19.9518 38.276 20.7397C37.8617 21.1429 37.4805 21.4728 37.429 21.4728C37.3776 21.4728 37.0533 21.1881 36.7083 20.8401L36.0811 20.2072L36.7704 19.496C37.5207 18.7216 37.6361 18.4979 37.5423 17.9983C37.46 17.5595 37.0785 17.2695 36.5836 17.2695C36.2307 17.2695 36.1227 17.3394 35.4213 18.022L34.648 18.7745L33.9684 18.1001L33.2889 17.4257L34.0135 16.681C34.412 16.2715 34.7679 15.8176 34.8044 15.6724C34.8742 15.394 34.7195 14.9048 34.5053 14.7271C34.332 14.5833 33.8657 14.4687 33.6169 14.509ZM18.1865 15.8664C18.3622 16.0559 18.4262 16.2352 18.4262 16.5373C18.4262 17.099 18.0709 17.465 17.5256 17.465C16.685 17.465 16.2417 16.4503 16.8266 15.8654C17.1922 15.4999 17.8473 15.5004 18.1865 15.8664ZM26.5775 21.4709C26.1844 21.6297 25.9293 22.0695 25.9856 22.4916C26.0322 22.8407 26.2929 23.1317 28.903 25.7482C30.4795 27.3285 31.8956 28.6886 32.05 28.7704C32.5939 29.0588 32.846 28.9105 34.2918 27.4514C35.5575 26.1741 35.6304 26.0795 35.6283 25.7172C35.6247 25.0878 35.104 24.6289 34.5181 24.7389C34.3002 24.7798 33.9628 25.0437 33.3819 25.6276C32.9275 26.0844 32.5234 26.4582 32.4839 26.4582C32.4444 26.4582 31.3133 25.3584 29.9704 24.0142C28.6274 22.6699 27.4132 21.5262 27.2721 21.4726C26.9715 21.3583 26.8569 21.358 26.5775 21.4709ZM21.7291 26.2527C21.1671 26.7548 21.1992 26.8499 23.3511 31.0499C24.4109 33.1183 25.3479 34.888 25.4334 34.9824C25.7902 35.3766 26.5838 35.2844 26.8929 34.8126C27.1099 34.4815 27.1059 34.091 26.8804 33.591L26.6998 33.1906L27.6805 32.21L28.6612 31.2292L29.0628 31.4341C29.6314 31.7241 30.0122 31.7004 30.3594 31.3533C30.7293 30.9834 30.7597 30.3762 30.4251 30.0415C30.0712 29.6876 22.6946 25.9694 22.3463 25.9694C22.1532 25.9694 21.933 26.0705 21.7291 26.2527ZM26.3198 30.8326C26.0412 31.1148 25.7887 31.3457 25.7587 31.3457C25.7128 31.3457 24.6823 29.3492 24.6823 29.2601C24.6823 29.2434 25.1648 29.4748 25.7544 29.7745L26.8266 30.3194L26.3198 30.8326ZM16.3572 31.6146C15.7855 32.1926 15.2404 32.8194 15.1457 33.0075C14.8941 33.5069 14.8446 34.6261 15.047 35.2354C15.3795 36.2364 16.3954 37.0451 17.4807 37.1726C18.2604 37.2642 18.9133 37.0731 19.6274 36.5444C20.3505 36.0088 20.8021 35.9458 21.2051 36.3245C21.5043 36.6056 21.617 37.1035 21.4531 37.4205C21.3877 37.5471 20.9437 38.0517 20.4667 38.5417C19.6911 39.3384 19.5992 39.4713 19.5992 39.7956C19.5992 40.3246 20.0259 40.7299 20.5829 40.7299C20.9726 40.7299 21.0482 40.678 21.9679 39.7768C23.2187 38.5515 23.456 38.1197 23.4586 37.0642C23.4601 36.4039 23.418 36.1958 23.1877 35.7268C22.3602 34.0417 20.2314 33.5811 18.7356 34.7635C18.1547 35.2227 17.8393 35.3198 17.4515 35.1592C17.0764 35.0039 16.8622 34.6636 16.8622 34.2234C16.8622 33.9073 16.9638 33.7632 17.785 32.9157C18.2927 32.3918 18.7375 31.8454 18.7737 31.7015C18.8537 31.3828 18.6681 30.9006 18.391 30.7064C18.2789 30.628 18.0093 30.5637 17.7918 30.5637C17.4189 30.5637 17.3377 30.6232 16.3572 31.6146ZM35.9617 34.5659C35.3233 34.8353 35.1451 35.6652 35.623 36.1431C36.2114 36.7316 37.1497 36.413 37.2604 35.5872C37.3068 35.2417 37.2753 35.143 37.0345 34.8784C36.736 34.5505 36.2994 34.4234 35.9617 34.5659Z" fill="#171F25"/>
</svg>
