<svg width="50" height="51" viewBox="0 0 50 51" fill="none" xmlns="http://www.w3.org/2000/svg">
<path fill-rule="evenodd" clip-rule="evenodd" d="M41.7611 0.274076C41.5783 0.423407 40.4361 1.54707 39.2228 2.77123C37.4322 4.57771 36.952 5.12032 36.6734 5.65156L36.3303 6.30624L36.2988 8.4005L36.2673 10.4948L35.7105 10.0667C31.4159 6.76473 25.4875 5.1116 20.0255 5.69284C13.3491 6.40341 7.27867 10.1177 3.6054 15.7398C2.26682 17.7886 1.01667 20.7817 0.500925 23.1725C-1.61197 32.9684 3.09887 43.0014 11.9971 47.6567C20.4584 52.0835 30.7269 50.6438 37.6512 44.0599C42.1219 39.809 44.6155 33.9994 44.6155 27.8348C44.6155 23.082 42.9847 18.2479 40.0933 14.4309L39.5994 13.7788L41.6418 13.7297L43.6841 13.6807L44.3526 13.3641C44.9387 13.0864 45.3112 12.7604 47.3768 10.7168C48.6726 9.43484 49.7947 8.26686 49.8705 8.12126C50.1357 7.61169 49.9813 7.01613 49.52 6.76924C49.365 6.68629 44.7984 6.2784 44.0204 6.278L43.7684 6.27791L43.6005 3.94921C43.3585 0.592152 43.3587 0.593721 43.0402 0.275253C42.6736 -0.0913583 42.2088 -0.0917505 41.7611 0.274076ZM41.724 5.59155L41.7894 6.81718L40.0158 8.58111L38.2422 10.3449V8.65142C38.2422 7.35097 38.2772 6.87337 38.393 6.59343C38.4855 6.36998 39.1212 5.6493 40.0354 4.73165L41.5269 3.23442L41.5927 3.80017C41.6289 4.11138 41.688 4.91746 41.724 5.59155ZM24.6598 7.70121C28.2786 8.12459 31.5894 9.45602 34.5732 11.6878C36.0284 12.7763 36.0149 12.5707 34.7163 13.873L33.6039 14.9886L32.957 14.4688C30.9316 12.8412 28.4073 11.6607 25.6778 11.0647C24.7805 10.8688 24.3881 10.843 22.309 10.843C20.2441 10.843 19.8357 10.8695 18.9753 11.0593C17.469 11.3917 16.3799 11.7569 16.1201 12.0167C15.7715 12.3653 15.7956 12.9674 16.1733 13.3451C16.54 13.7118 16.8015 13.7113 18.0454 13.3418C21.883 12.2017 26.2775 12.7039 29.7609 14.6806C30.5071 15.1041 32.1568 16.2712 32.1612 16.3787C32.1622 16.4065 31.6629 16.9282 31.0514 17.5379L29.9396 18.6465L29.2122 18.1246C25.3085 15.3243 20.0928 15.1822 15.918 17.7624C14.7915 18.4585 13.0738 20.1467 12.3133 21.305C8.50616 27.1033 10.3803 34.8547 16.426 38.3147C19.5043 40.0765 23.4032 40.3419 26.7213 39.0156C27.9443 38.5267 28.2411 38.2659 28.2411 37.6803C28.2411 37.3592 28.1822 37.1941 28.0044 37.0163C27.6007 36.6126 27.3315 36.6099 26.4316 37.0008C24.7638 37.7251 23.2502 37.9724 21.3776 37.8267C16.675 37.4607 12.7532 33.5255 12.3671 28.7853C12.1178 25.723 13.1823 22.85 15.3468 20.7439C17.2218 18.9194 19.599 17.941 22.211 17.9189C23.4967 17.908 24.465 18.0627 25.5937 18.4594C26.5951 18.8113 27.0002 19.0119 27.8819 19.5926L28.5523 20.0339L27.4063 21.183L26.2603 22.3319L25.7064 21.9984C25.4017 21.815 24.7995 21.5479 24.3681 21.4049C23.6811 21.1772 23.4255 21.1449 22.309 21.1449C21.1907 21.1449 20.9382 21.1769 20.25 21.4058C19.163 21.7675 18.3225 22.2869 17.5102 23.0993C16.6979 23.9115 16.1785 24.752 15.8168 25.839C15.5886 26.525 15.5556 26.7832 15.5537 27.898C15.5517 29.0395 15.5798 29.2547 15.8228 29.9571C16.5209 31.9754 17.9577 33.4969 19.8649 34.2375C23.4963 35.6476 27.5556 33.6949 28.8085 29.9353C29.0299 29.271 29.0626 29.0086 29.0624 27.898C29.0622 26.7816 29.0298 26.5259 28.8019 25.8381C28.6588 25.4062 28.3589 24.7498 28.1356 24.3796L27.7296 23.7063L28.8378 22.5949C29.6724 21.7579 29.9768 21.5089 30.0704 21.5865C30.2791 21.7597 31.1872 23.2267 31.441 23.8004C32.3457 25.8461 32.5435 28.3616 31.9657 30.473C31.7074 31.4172 31.7188 31.6116 32.0551 31.9878C32.2902 32.251 32.4102 32.3059 32.7514 32.3059C33.3479 32.3059 33.6402 31.9424 33.9104 30.8656C34.7883 27.365 34.0742 23.667 31.9741 20.8384L31.3917 20.054L32.4867 18.9509C33.0889 18.3443 33.6099 17.8479 33.6446 17.8479C33.7276 17.8479 34.7863 19.236 35.1774 19.8579C36.0711 21.2789 36.8779 23.3255 37.2318 25.0697C37.5014 26.3982 37.4767 29.6122 37.1868 30.914C36.5031 33.9847 35.1874 36.3963 32.9985 38.5903C30.8213 40.7726 28.3609 42.1075 25.2996 42.7676C24.4235 42.9566 23.9778 42.9896 22.309 42.9896C20.6371 42.9896 20.1962 42.9567 19.3185 42.7668C17.8675 42.4529 17.0075 42.1475 15.5435 41.4268C11.4114 39.3924 8.47116 35.585 7.43663 30.9291C7.25229 30.0993 7.22043 29.6558 7.21876 27.898C7.21709 26.1355 7.24759 25.7012 7.43055 24.8821C7.87943 22.8728 8.57617 21.1974 9.6312 19.5907C10.2981 18.575 10.3719 18.1448 9.95104 17.7238C9.61953 17.3923 9.29361 17.3239 8.8764 17.4982C8.22741 17.7694 6.749 20.3648 6.04823 22.4635C5.40502 24.3895 5.24824 25.4548 5.24824 27.898C5.24824 30.3892 5.40453 31.4132 6.08677 33.3917C8.10278 39.2383 12.8544 43.4019 19.0243 44.7283C19.9112 44.919 20.3527 44.9503 22.211 44.9542C24.7282 44.9596 25.5906 44.8353 27.6038 44.1769C32.0297 42.7293 35.5536 39.6879 37.6041 35.546C38.4121 33.914 38.7936 32.8414 39.1385 31.2318C39.3435 30.2759 39.3697 29.8967 39.3697 27.898C39.3698 25.9037 39.3433 25.5182 39.1398 24.5643C38.5487 21.7927 37.3365 19.2042 35.6854 17.1876C35.3659 16.7975 35.1046 16.4452 35.1046 16.4047C35.1046 16.3643 35.5961 15.8383 36.1968 15.2359L37.2889 14.1407L37.8211 14.7441C39.2127 16.322 40.8971 19.314 41.6108 21.4757C45.1423 32.1719 39.3251 43.7018 28.629 47.2065C24.4577 48.5732 20.1823 48.5716 15.9898 47.2017C8.32153 44.6963 2.89708 37.9256 2.06748 29.8242C1.86432 27.8396 1.97149 25.9361 2.40918 23.758C3.00886 20.7736 4.46383 17.6779 6.44936 15.1623C7.24925 14.1487 8.93827 12.5112 10.0071 11.7129C14.3293 8.48483 19.4271 7.08918 24.6598 7.70121ZM46.1192 8.40443L46.7895 8.46473L45.3348 9.93098C44.475 10.7975 43.7197 11.4722 43.4879 11.5808C43.1522 11.738 42.849 11.7647 41.3808 11.7666L39.666 11.7687L41.4299 9.9949L43.1938 8.22097L44.3214 8.28255C44.9415 8.31638 45.7506 8.37119 46.1192 8.40443ZM12.3919 13.9251C11.8109 14.1595 11.6794 15.0283 12.1533 15.5022C12.5438 15.8927 13.0209 15.8936 13.4561 15.5047C14.2809 14.7678 13.4308 13.5058 12.3919 13.9251ZM23.2602 23.1553C23.5459 23.2163 24.0189 23.3716 24.3111 23.5005L24.8425 23.7347L23.159 25.4357C21.5361 27.0755 21.4756 27.1509 21.4756 27.5343C21.4756 27.8191 21.5477 28.0177 21.7295 28.2337C21.9451 28.49 22.0511 28.5354 22.4339 28.5354H22.8846L24.586 26.8441C26.4619 24.9793 26.3052 25.0449 26.7219 25.9498C27.2111 27.0121 27.2654 28.3129 26.8686 29.4662C26.0819 31.7527 23.7173 33.1087 21.3799 32.6139C20.4291 32.4126 19.7397 32.0689 19.0829 31.4685C17.0063 29.5706 16.9331 26.491 18.9176 24.5066C20.1076 23.3165 21.6971 22.822 23.2602 23.1553ZM30.3026 34.0999C30.0734 34.2153 29.9174 34.3897 29.8259 34.6329C29.704 34.9569 29.7089 35.0335 29.8725 35.3683C30.3184 36.2813 31.6729 35.9965 31.6729 34.9898C31.6729 34.5118 31.4551 34.17 31.0635 34.0336C30.6795 33.8997 30.7049 33.8975 30.3026 34.0999Z" fill="#171F25"/>
</svg>
