<svg width="50" height="51" viewBox="0 0 50 51" fill="none" xmlns="http://www.w3.org/2000/svg">
<path fill-rule="evenodd" clip-rule="evenodd" d="M24.4925 0.13432C24.0592 0.374446 24.0002 0.626202 23.9965 2.25187L23.9931 3.77286L19.815 4.88416C17.5172 5.49538 15.3642 6.07678 15.0307 6.17617C14.3504 6.37906 14.0245 6.69503 14.0245 7.15163C14.0245 7.30908 15.1047 11.4671 16.4249 16.3916L18.8255 25.3453L16.7636 27.4089L14.7015 29.4726L14.2745 29.0633C14.0253 28.8245 13.6147 28.567 13.2885 28.4451C12.739 28.2394 12.6409 28.2364 7.39104 28.2636L2.05236 28.2911L1.53253 28.579C0.952099 28.9006 0.549153 29.3157 0.220482 29.9309L0 30.3435V39.1393V47.9351L0.220482 48.3478C0.549153 48.9629 0.952099 49.378 1.53253 49.6996L2.05236 49.9875H7.57418H13.096L13.602 49.7071C14.2264 49.361 14.5205 49.06 14.8843 48.3947L15.1666 47.8784L15.9883 48.5727C16.8756 49.3227 17.6814 49.7575 18.5005 49.9284C18.8656 50.0045 23.472 50.0364 34.1179 50.0364C50.5361 50.0364 49.6149 50.0676 49.8728 49.5016C50.0424 49.1294 50.0424 0.904834 49.8728 0.532673C49.6166 -0.0298691 50.2825 -0.00240658 36.9718 0.00130721C26.9949 0.00414142 24.6828 0.0287697 24.4925 0.13432ZM48.035 25.0171V48.0817H44.5551C41.2807 48.0817 41.0791 48.0717 41.1418 47.9107C41.4159 47.2068 41.4181 46.2251 41.1472 45.5304C41.0963 45.3997 41.1863 45.3642 41.6829 45.3192C42.9609 45.2034 44.1375 44.2532 44.5144 43.0328C44.7498 42.2704 44.7624 41.8281 44.5666 41.1828C44.4866 40.9189 44.4207 40.659 44.4204 40.6053C44.42 40.5515 44.6119 40.4285 44.8469 40.3318C45.4776 40.0726 46.0027 39.5748 46.3804 38.878C46.6955 38.297 46.7156 38.2038 46.7151 37.3313C46.7147 36.5083 46.6842 36.3449 46.4464 35.893L46.1781 35.3831L46.1775 29.2472C46.1772 25.3434 46.1405 22.9796 46.0765 22.7493C45.8653 21.9889 45.077 21.7515 44.4938 22.2725L44.1746 22.5577L44.1472 28.3119L44.1198 34.0662L43.7973 34.0285L43.4747 33.9909L43.6113 33.4865C43.921 32.3423 43.5505 31.0884 42.6554 30.2511C41.9033 29.5477 41.4516 29.3853 40.0699 29.3221C38.9292 29.2699 38.9064 29.2645 39.2367 29.1254C39.8126 28.8826 40.8585 27.7678 41.2049 27.0275C42.0599 25.2006 41.7013 23.161 40.2744 21.734C38.415 19.8747 35.5677 19.8747 33.7082 21.734C32.278 23.1643 31.9209 25.1966 32.778 27.028C33.1154 27.7491 34.0544 28.7652 34.6957 29.1032L35.0856 29.3087L32.4708 29.313L29.856 29.3173L29.8809 20.0253L29.9058 10.7334L30.4112 10.5554C31.0603 10.3268 31.6433 9.92271 32.2313 9.2939C32.6899 8.80339 33.2773 7.74066 33.2774 7.40104C33.2775 7.24115 33.5195 7.23001 36.9913 7.23001C40.4632 7.23001 40.7051 7.24115 40.7052 7.40104C40.7053 7.74066 41.2928 8.80339 41.7513 9.2939C42.3396 9.9229 42.9226 10.3269 43.5715 10.5551L44.0769 10.7329L44.1257 12.3776C44.1571 13.4349 44.2185 14.0991 44.2975 14.2373C44.7479 15.0245 45.8313 14.876 46.0765 13.9935C46.207 13.5232 46.207 10.1235 46.0765 9.65326C45.9521 9.20585 45.5698 8.89145 45.15 8.89145C44.6392 8.89145 43.8635 8.59464 43.4506 8.24124C42.9999 7.85539 42.562 7.03318 42.562 6.57247C42.562 6.13444 42.3401 5.62956 42.0619 5.43478C41.8589 5.29258 41.3091 5.27538 36.9711 5.27538H32.1079L31.8133 5.54414C31.5702 5.76599 31.5033 5.92579 31.43 6.45969C31.3813 6.81534 31.2728 7.2389 31.189 7.40085C30.7706 8.20996 29.9619 8.7598 29.043 8.85968C28.765 8.88998 28.435 8.97892 28.3095 9.0573C27.791 9.38137 27.8046 9.09864 27.8046 19.5899V29.3173H26.8761H25.9477V15.6349V1.95251H36.9913H48.035V25.0171ZM23.9709 7.63521L23.9442 9.40864L23.4861 9.54214C23.215 9.62111 22.943 9.78383 22.8195 9.94079C22.6303 10.1813 22.6171 10.2802 22.6776 11.0058C22.7979 12.4509 22.3089 13.3062 21.0095 13.9228C20.2527 14.2819 20.0838 14.4639 20.0838 14.9201C20.0838 15.1224 23.4879 27.9624 23.8555 29.1463C23.9035 29.3014 23.8169 29.3173 22.9264 29.3173H21.9444L21.8775 29.0485C21.653 28.1476 20.6013 24.2271 18.5806 16.7588C17.3153 12.0824 16.2673 8.17273 16.2518 8.07079C16.2265 7.90573 16.6307 7.77535 19.9372 6.88189C21.9798 6.32991 23.729 5.87457 23.8243 5.87008C23.9849 5.86236 23.9955 5.99019 23.9709 7.63521ZM23.9706 19.9041L23.9442 21.9386L23.0873 18.7623L22.2303 15.586L22.452 15.4439C22.5739 15.3658 22.9596 15.0139 23.3089 14.6621L23.9442 14.0223L23.9706 15.946C23.9851 17.004 23.9851 18.7852 23.9706 19.9041ZM44.5048 17.8648C44.2483 18.094 44.1968 18.2114 44.1968 18.5669C44.1968 18.9223 44.2483 19.0397 44.5048 19.269C44.9296 19.6484 45.4087 19.6445 45.7947 19.2585C46.399 18.6542 45.9946 17.5895 45.161 17.5895C44.9174 17.5895 44.7205 17.6721 44.5048 17.8648ZM38.2538 22.6432C39.2009 23.1276 39.8256 24.2832 39.6907 25.3007C39.6025 25.9659 39.1583 26.7651 38.6697 27.1377C37.1185 28.3208 34.9357 27.602 34.3911 25.7288C34.1923 25.0453 34.2601 24.4634 34.6209 23.7562C35.2996 22.4255 36.8809 21.941 38.2538 22.6432ZM19.8776 29.1707C20.2247 30.5326 20.3145 30.7691 20.5725 31.0032L20.8688 31.2719L30.7625 31.2721C39.9887 31.2722 40.6788 31.2838 40.9914 31.4432C41.4953 31.7001 41.7313 32.0818 41.7313 32.6402C41.7313 33.1985 41.4953 33.5803 40.9914 33.8372C40.6849 33.9935 40.2162 34.0081 35.5055 34.0082C31.7206 34.0084 30.2869 34.0394 30.0985 34.1252C29.8184 34.2528 29.5638 34.6626 29.5638 34.9857C29.5638 35.3088 29.8184 35.7186 30.0985 35.8463C30.2892 35.9331 32.061 35.963 37.0204 35.9632C43.1713 35.9633 43.7122 35.9765 44.026 36.1343C44.7608 36.5033 45.0206 37.3778 44.588 38.0254C44.118 38.7289 44.4519 38.6992 37.0204 38.6993C32.061 38.6995 30.2892 38.7294 30.0985 38.8163C29.8184 38.944 29.5638 39.3537 29.5638 39.6768C29.5638 39.9999 29.8184 40.4097 30.0985 40.5374C30.2877 40.6236 31.8253 40.6542 35.9729 40.6542C40.542 40.6542 41.6516 40.6795 41.9153 40.7897C42.9552 41.2242 42.9552 42.8206 41.9153 43.2551C41.6516 43.3653 40.542 43.3906 35.9729 43.3906C31.8253 43.3906 30.2877 43.4212 30.0985 43.5074C29.8184 43.6351 29.5638 44.0448 29.5638 44.3679C29.5638 44.691 29.8184 45.1008 30.0985 45.2285C30.2838 45.3129 31.4571 45.3453 34.3343 45.3453C38.0292 45.3453 38.3381 45.3583 38.6543 45.5273C39.5925 46.029 39.5916 47.3975 38.6528 47.901C38.3237 48.0775 37.9381 48.0835 28.5376 48.0587C18.8496 48.0331 18.7606 48.0311 18.3246 47.8281C18.0828 47.7155 17.2805 47.0998 16.5417 46.4599L15.1986 45.2964L15.1979 38.5537L15.1972 31.8111L17.3184 29.6883C18.485 28.5207 19.4485 27.5748 19.4593 27.5862C19.4701 27.5976 19.6583 28.3107 19.8776 29.1707ZM6.61906 36.0693L6.64574 41.9417L6.91997 42.1775C7.1081 42.3393 7.31344 42.4133 7.57418 42.4133C7.83493 42.4133 8.04027 42.3393 8.2284 42.1775L8.50263 41.9417L8.52931 36.0693L8.55599 30.1969H10.567H12.578L12.9103 30.5292L13.2426 30.8615V39.1393V47.4172L12.9103 47.7495L12.578 48.0817H7.57418H2.57034L2.23805 47.7495L1.90576 47.4172V39.1393V30.8615L2.23805 30.5292L2.57034 30.1969H4.58136H6.59237L6.61906 36.0693ZM7.09628 44.3089C6.24904 44.7785 6.60352 46.1271 7.57418 46.1271C8.06939 46.1271 8.5515 45.6497 8.5515 45.1593C8.5515 44.4255 7.74062 43.9517 7.09628 44.3089Z" fill="#171F25"/>
</svg>
