<svg width="50" height="52" viewBox="0 0 50 52" fill="none" xmlns="http://www.w3.org/2000/svg">
<path fill-rule="evenodd" clip-rule="evenodd" d="M38.7658 0.240747C38.5609 0.445524 38.5163 0.590849 38.5163 1.05376V1.61727H37.9894C37.2355 1.61727 36.6502 1.92774 36.3101 2.50813C36.0565 2.94075 36.0345 3.07408 35.9938 4.42977L35.95 5.88658L25.7257 5.86067L15.5014 5.83475L15.439 5.45081C15.3674 5.01026 15.1142 4.77561 14.7058 4.77093C14.3333 4.76666 13.9228 5.17713 13.9228 5.55376C13.9228 5.77937 13.8575 5.86565 13.6189 5.95569C13.0184 6.18241 13.0169 6.94603 13.6164 7.28709C13.9067 7.45233 13.9215 7.49308 13.9222 8.12753L13.9228 8.7943L13.3974 8.92896C12.6272 9.12632 11.2199 9.86687 10.4989 10.4541C9.24461 11.4755 8.23648 13.0683 7.82439 14.6795C7.63384 15.4243 7.62205 15.8095 7.62297 21.2219L7.62398 26.973L7.86484 27.4811C8.34116 28.4856 9.28974 29.1125 10.5049 29.226L11.1575 29.287L11.1961 29.9716C11.2641 31.174 11.9905 31.8762 13.273 31.9792L13.9228 32.0313V32.3731C13.9228 32.6959 13.903 32.7148 13.5671 32.7148C13.103 32.7148 12.8049 33.0101 12.8049 33.4696C12.8049 33.887 13.1832 34.2392 13.6316 34.2392C13.8966 34.2392 13.9228 34.2711 13.9228 34.5949V34.9506H10.1439C6.52083 34.9506 6.34695 34.9593 5.92713 35.1626C5.68628 35.2792 5.39858 35.5018 5.28781 35.6573C5.1062 35.9124 5.00752 35.947 4.28171 36.0104C3.18811 36.1058 2.51839 36.4961 2.11311 37.2742L1.82927 37.8193V42.0042V46.1889L1.3935 46.3055C0.835163 46.4548 0.452541 46.7586 0.200407 47.2529C0.0280488 47.5907 0 47.8533 0 49.1274C0 50.8517 0.12002 51.2215 0.833028 51.6934L1.25549 51.973H25H48.7445L49.167 51.6934C49.8826 51.2198 50 50.8545 50 49.1006C50 47.6076 49.997 47.5872 49.7027 47.1234C49.4849 46.7798 49.268 46.5916 48.8897 46.4181L48.374 46.1815V44.8989C48.374 43.7552 48.3512 43.5872 48.1633 43.3485C47.8994 43.0129 47.3555 42.9813 47.0528 43.2839C46.8697 43.4671 46.8496 43.6227 46.8496 44.8591V46.2311H33.689H20.5285V41.912V37.5929H33.689H46.8496V39.1099V40.6269L47.1174 40.8375C47.2646 40.9533 47.4454 41.0482 47.5191 41.0482C47.7878 41.0482 48.151 40.8165 48.2612 40.5749C48.3403 40.4011 48.374 38.2527 48.374 33.3715V26.4157L48.7363 25.9411C50.4128 23.7447 50.4195 20.4539 48.7519 18.2692C48.4115 17.8232 48.4042 17.7924 48.3435 16.5505C48.2789 15.2298 48.1213 14.4801 47.6931 13.4567C46.9001 11.5615 45.0091 9.76971 43.134 9.13678L42.5305 8.93302L42.5603 5.99105C42.5885 3.20111 42.5794 3.02815 42.3833 2.644C42.0439 1.97855 41.5576 1.68008 40.7378 1.63374L40.0406 1.5943V1.01371C40.0406 0.538308 39.9981 0.393186 39.8055 0.21219C39.4934 -0.0808993 39.0759 -0.0694155 38.7658 0.240747ZM40.9952 3.30243C41.0292 3.39085 41.0569 4.57428 41.0569 5.93221C41.0569 7.91158 41.029 8.42449 40.9162 8.51808C40.8202 8.59776 40.2791 8.62591 39.2139 8.6068L37.6524 8.57865L37.6252 5.98892C37.6103 4.56463 37.6203 3.34126 37.6475 3.27042C37.6844 3.17398 38.1025 3.14166 39.3152 3.14166C40.6972 3.14166 40.9426 3.16514 40.9952 3.30243ZM35.977 7.79105C35.9777 8.00071 36.006 8.2751 36.0396 8.40081L36.1009 8.62947H25.7741H15.4472V8.01971V7.40995H25.7114H35.9756L35.977 7.79105ZM41.6455 10.3137C42.6242 10.5134 43.669 11.0093 44.4614 11.6502C45.1885 12.2383 46.0403 13.389 46.3454 14.1955C46.5704 14.7903 46.889 16.3475 46.8033 16.4332C46.7771 16.4593 46.5597 16.3885 46.3199 16.2759C44.5431 15.4408 42.5679 15.4735 40.7533 16.3681C40.077 16.7015 39.7141 16.9707 39.0732 17.6148C37.6971 18.9978 37.1185 20.5167 37.2312 22.4506C37.3363 24.2532 38.0011 25.6452 39.3322 26.8498C41.1713 28.5141 43.9422 28.9844 46.0968 27.998C46.4126 27.8534 46.7111 27.7352 46.7603 27.7352C46.8102 27.7352 46.8496 29.552 46.8496 31.851V35.9669H41.2645H35.6795L35.6497 29.7423L35.6199 23.5177L35.3791 22.985C35.2466 22.692 34.9558 22.2874 34.7327 22.0859C34.0296 21.4506 33.8005 21.3957 31.6754 21.3524C29.6038 21.3103 29.2763 21.3669 29.0783 21.8017C28.9175 22.1545 28.9331 22.283 29.1741 22.5893L29.3847 22.8571L31.1304 22.8577C33.1612 22.8583 33.5672 22.9389 33.8463 23.3968C34.0363 23.7083 34.044 23.9587 34.0443 29.8439L34.0447 35.9669H27.2326H20.4206L20.095 35.596C19.5763 35.0052 19.3381 34.9506 17.2797 34.9506H15.4472V34.5949C15.4472 34.2553 15.4634 34.2392 15.8074 34.2392C16.2367 34.2392 16.6667 33.867 16.6667 33.4953C16.6667 33.0948 16.3073 32.7311 15.8764 32.6954C15.5314 32.6668 15.4951 32.6348 15.4662 32.3337C15.4349 32.0093 15.4418 32.0034 15.853 32.0034C17.3372 32.0034 18.2927 31.0761 18.2927 29.6358V29.2889L18.9737 29.2253C20.1644 29.1141 21.017 28.5479 21.5656 27.5037C21.7649 27.1244 21.7975 26.872 21.8457 25.3296C21.8981 23.659 21.911 23.5733 22.1469 23.3223C22.5127 22.9332 22.9442 22.8583 24.8222 22.8577C26.3885 22.8571 26.5407 22.8408 26.7276 22.6539C26.9846 22.3969 26.9885 21.9344 26.7365 21.6235C26.5434 21.3852 26.5272 21.3835 24.4245 21.3835C22.4365 21.3835 22.2813 21.3973 21.8886 21.6073C21.2416 21.9535 20.8707 22.3101 20.6126 22.834C20.4019 23.2617 20.3704 23.5004 20.3252 25.0095C20.2699 26.8546 20.2301 26.9856 19.5747 27.4748C19.301 27.6792 19.1809 27.6843 14.7538 27.6843C10.5748 27.6843 10.1868 27.6698 9.87866 27.5015C9.36809 27.2229 9.14715 26.7795 9.14675 26.0329L9.14634 25.3978H11.513C13.767 25.3978 13.901 25.3869 14.3272 25.1691C14.5734 25.0433 14.9146 24.7647 15.0856 24.55L15.3963 24.1595L15.4248 19.5324C15.4527 14.9756 15.4499 14.8984 15.2346 14.4538C15.102 14.1798 14.8541 13.895 14.6043 13.7295C14.1961 13.4591 14.174 13.4564 12.1267 13.4255C10.9905 13.4083 10.061 13.358 10.061 13.3137C10.061 13.0067 11.4158 11.6113 12.1857 11.1253C12.7477 10.7705 13.7859 10.3787 14.4636 10.2654C14.753 10.2172 20.8111 10.1723 27.926 10.1657C39.3234 10.1553 40.9554 10.1729 41.6455 10.3137ZM17.8936 13.6737C17.7125 13.9038 17.6829 14.0835 17.6829 14.9518C17.6829 15.9408 17.6894 15.9687 17.9903 16.2696C18.2392 16.5185 18.3506 16.5639 18.5747 16.5079C19.1494 16.3645 19.2073 16.2233 19.2073 14.9653C19.2073 13.9479 19.1834 13.7885 19.0041 13.6091C18.7014 13.3065 18.1575 13.3381 17.8936 13.6737ZM20.4342 13.6737C20.2532 13.9038 20.2236 14.0835 20.2236 14.9518C20.2236 15.9408 20.2301 15.9687 20.531 16.2696C20.7799 16.5185 20.8913 16.5639 21.1153 16.5079C21.69 16.3645 21.748 16.2233 21.748 14.9653C21.748 13.9479 21.7241 13.7885 21.5447 13.6091C21.2421 13.3065 20.6982 13.3381 20.4342 13.6737ZM22.9749 13.6737C22.7938 13.9038 22.7642 14.0835 22.7642 14.9518C22.7642 15.9408 22.7707 15.9687 23.0716 16.2696C23.3181 16.5161 23.434 16.564 23.656 16.5115C24.1906 16.3851 24.2886 16.1384 24.2886 14.919C24.2886 13.9479 24.2637 13.7875 24.0854 13.6091C23.7827 13.3065 23.2388 13.3381 22.9749 13.6737ZM25.5155 13.6737C25.3345 13.9038 25.3049 14.0835 25.3049 14.9518C25.3049 15.9408 25.3114 15.9687 25.6123 16.2696C25.8587 16.5161 25.9747 16.564 26.1966 16.5115C26.7313 16.3851 26.8293 16.1384 26.8293 14.919C26.8293 13.9479 26.8044 13.7875 26.626 13.6091C26.3234 13.3065 25.7795 13.3381 25.5155 13.6737ZM13.8008 15.0522C13.8918 15.1432 13.9228 16.2528 13.9228 19.4186C13.9228 23.5109 13.9158 23.6668 13.7262 23.7682C13.6081 23.8314 12.6528 23.8734 11.3329 23.8734H9.13618L9.16758 19.5797C9.18486 17.2181 9.2378 15.206 9.28516 15.1081C9.36321 14.947 9.57449 14.9303 11.5251 14.9303C13.0647 14.9303 13.7136 14.965 13.8008 15.0522ZM45.1673 17.4912C48.0077 18.4247 49.315 21.7558 47.8883 24.4247C47.7367 24.7083 47.3521 25.2044 47.0338 25.527C45.1587 27.427 42.0187 27.4174 40.1423 25.5058C38.2682 23.5965 38.267 20.5988 40.1394 18.6852C41.4458 17.3501 43.3569 16.8962 45.1673 17.4912ZM42.4556 18.8443C41.5621 19.1725 40.8451 19.8616 40.4196 20.8009C40.0894 21.5297 40.1105 22.7176 40.4673 23.4868C40.7963 24.1962 41.4476 24.8649 42.124 25.1879C42.8671 25.5427 44.0616 25.5933 44.832 25.3026C45.6313 25.0011 46.2642 24.411 46.668 23.5906C46.9617 22.9941 47.002 22.8135 47.002 22.0949C47.002 21.3763 46.9617 21.1957 46.668 20.5992C46.0489 19.3416 44.9768 18.6838 43.5683 18.6976C43.1652 18.7015 42.6644 18.7676 42.4556 18.8443ZM44.4794 20.4268C44.9974 20.6775 45.2726 21.0315 45.442 21.6649C45.6636 22.4937 45.2452 23.3923 44.4608 23.772C43.2783 24.3445 41.982 23.6741 41.7318 22.3607C41.5939 21.6369 42.1291 20.6634 42.8334 20.3565C43.2921 20.1566 43.9823 20.1862 44.4794 20.4268ZM16.7683 29.5578C16.7683 29.7218 16.7237 29.9734 16.6692 30.1168L16.5701 30.3774H14.7586C13.4852 30.3774 12.911 30.3413 12.8252 30.2555C12.7581 30.1884 12.7033 29.9369 12.7033 29.6965V29.2595H14.7358H16.7683V29.5578ZM18.9533 43.4872V50.4486H12.7541H6.55488L6.52856 43.5888C6.51413 39.8159 6.52419 36.6715 6.55112 36.6012C6.58974 36.5001 7.88923 36.4789 12.7766 36.4996L18.9533 36.5258V43.4872ZM14.2302 37.5747C13.961 37.8439 13.9228 37.953 13.9228 38.4535C13.9228 38.9247 13.9666 39.0686 14.1723 39.2743C14.4802 39.5823 14.9614 39.603 15.2439 39.3205C15.4048 39.1596 15.4472 38.9818 15.4472 38.468C15.4472 37.74 15.2818 37.4433 14.8145 37.3328C14.5926 37.2803 14.4766 37.3282 14.2302 37.5747ZM4.87805 41.912V46.2311H4.11585H3.35366V42.1798C3.35366 38.2351 3.35925 38.1213 3.56433 37.8607C3.74563 37.6302 3.85163 37.5929 4.32652 37.5929H4.87805V41.912ZM14.4672 40.6418C14.1079 40.7852 13.9228 41.151 13.9228 41.7177C13.9228 42.4025 14.1942 42.7758 14.6924 42.7758C15.2467 42.7758 15.4472 42.4955 15.4472 41.72C15.4472 40.8333 15.0585 40.4057 14.4672 40.6418ZM14.1334 44.1615C13.9813 44.3549 13.9228 44.5769 13.9228 44.9608C13.9228 45.6551 14.1917 46.0278 14.6924 46.0278C15.2494 46.0278 15.4472 45.7484 15.4472 44.9608C15.4472 44.4357 15.4055 44.2585 15.2439 44.0969C14.9413 43.7943 14.3974 43.8259 14.1334 44.1615ZM14.1334 47.4135C13.9813 47.6069 13.9228 47.829 13.9228 48.2128C13.9228 48.9071 14.1917 49.2799 14.6924 49.2799C15.2494 49.2799 15.4472 49.0004 15.4472 48.2128C15.4472 47.6877 15.4055 47.5106 15.2439 47.349C14.9413 47.0463 14.3974 47.0779 14.1334 47.4135ZM4.89797 49.1276L4.92886 50.4997L3.34858 50.4996C2.25518 50.4995 1.73069 50.4618 1.64634 50.3774C1.47866 50.2097 1.47866 48.0451 1.64634 47.8774C1.73049 47.7933 2.24807 47.7555 3.31768 47.7555H4.86707L4.89797 49.1276ZM48.3537 47.8774C48.5213 48.0451 48.5213 50.2097 48.3537 50.3774C48.26 50.4711 45.0181 50.4994 34.3801 50.4994H20.5285V49.1274V47.7555H34.3801C45.0181 47.7555 48.26 47.7837 48.3537 47.8774Z" fill="#171F25"/>
</svg>
