<svg width="50" height="50" viewBox="0 0 50 51" fill="none" xmlns="http://www.w3.org/2000/svg">
<path fill-rule="evenodd" clip-rule="evenodd" d="M23.2831 0.121382C22.7403 0.322228 22.2554 0.730082 21.9579 1.23601L21.6939 1.68523L21.6654 5.75448L21.6369 9.82382L21.2486 10.1358C21.0351 10.3075 20.7575 10.6544 20.6317 10.9069C20.5059 11.1592 19.3343 14.3139 18.0283 17.9172C16.7222 21.5206 15.6252 24.5008 15.5906 24.54C15.5561 24.5792 14.4775 21.7191 13.1938 18.1841C11.91 14.6491 10.7136 11.4441 10.535 11.0619C10.1822 10.3067 9.80175 9.94087 9.11795 9.69964C7.93791 9.28328 6.66321 9.79244 6.07719 10.9142C5.53909 11.9443 5.39417 11.438 9.28907 22.1342C11.2058 27.398 12.7939 31.7979 12.8182 31.9117C12.8669 32.1402 12.1587 34.1979 12.0312 34.1981C11.9873 34.1981 11.8113 34.093 11.6401 33.9646C10.7139 33.2697 9.52776 32.8948 8.24866 32.8924C7.0911 32.8904 6.3192 33.0829 5.16849 33.6607C2.8699 34.8149 1.0084 37.2269 0.263393 40.0163C0.032722 40.8801 0.00201809 41.1765 6.24289e-05 42.5586C-0.00169767 43.8672 0.0329176 44.251 0.211372 44.9054C1.02757 47.8966 3.18398 49.8356 5.88788 50.0097C8.54671 50.1809 11.3478 48.5013 13.0149 45.736C13.498 44.9346 13.9088 43.9527 14.8058 41.4557C15.1976 40.3651 15.5482 39.5071 15.5848 39.5489C15.6215 39.5909 16.0591 40.7472 16.5572 42.1186C17.0552 43.49 17.5515 44.7881 17.66 45.0032C18.6018 46.8712 20.2728 48.5543 21.9872 49.3615C24.4343 50.5136 26.9903 50.1569 28.8967 48.397C29.6522 47.6995 30.327 46.679 30.6394 45.7618L30.8792 45.0572L39.5362 45.0302L48.1931 45.0032L48.5842 44.7918C49.104 44.5108 49.5553 44.0262 49.7988 43.4876C49.9958 43.0519 49.9978 42.9124 49.9999 29.5436C50.0015 19.4813 49.9729 15.9549 49.8877 15.7072C49.5532 14.7356 48.985 14.2772 47.6553 13.9062C44.7739 13.1022 42.8566 11.4799 41.5329 8.72562C40.7484 7.09342 40.2559 5.11038 40.076 2.85863C40.0416 2.42838 39.9481 1.86984 39.8682 1.61746C39.7001 1.08699 39.1646 0.491687 38.6061 0.214765C38.2332 0.0298566 37.9557 0.0222295 30.9344 0.004433C24.933 -0.0108212 23.585 0.00981107 23.2831 0.121382ZM38.0607 1.90524C38.3058 2.15253 38.3364 2.27222 38.4414 3.39644C38.9546 8.89224 41.2353 12.7868 45.054 14.688C45.6511 14.9852 46.5357 15.3388 47.0197 15.4736C47.6416 15.6468 47.9646 15.7922 48.1208 15.969L48.3418 16.2193L48.3164 29.5574L48.2909 42.8955L48.0681 43.1181L47.8455 43.3409L39.4877 43.3669L31.1299 43.393V42.4244C31.1299 40.8564 30.7586 39.3191 30.0287 37.865C28.7554 35.3284 26.3113 33.3623 23.9673 32.9889L23.3073 32.8836V25.4841V18.0845L24.3005 15.3607C24.8468 13.8627 25.314 12.4328 25.3386 12.1831C25.4368 11.1909 24.7011 10.0377 23.7724 9.72809L23.3562 9.58944L23.3305 5.89988L23.3049 2.21032L23.5919 1.92333L23.8789 1.63634H30.8366H37.7942L38.0607 1.90524ZM25.451 3.58447C25.0862 3.9492 25.0687 4.38453 25.4052 4.72091C25.6197 4.93554 25.7275 4.96097 26.4232 4.96097C27.1775 4.96097 27.2092 4.95148 27.4631 4.64982C27.7808 4.27228 27.7427 3.85553 27.3599 3.51866C27.1513 3.33512 26.996 3.29865 26.4233 3.29865C25.7949 3.29865 25.7126 3.3228 25.451 3.58447ZM29.8099 3.40621C29.3027 3.69751 29.2081 4.31922 29.6099 4.72091C29.8225 4.93359 29.9344 4.96097 30.5921 4.96097C31.2498 4.96097 31.3618 4.93359 31.5744 4.72091C31.8692 4.42619 31.8942 3.90774 31.6295 3.58085C31.471 3.38519 31.3413 3.34823 30.725 3.3232C30.3066 3.30618 29.9236 3.34089 29.8099 3.40621ZM33.8049 3.5304C33.4507 3.83499 33.4342 4.35901 33.7675 4.71387C33.9778 4.9376 34.0726 4.96097 34.7694 4.96097C35.4562 4.96097 35.5649 4.93515 35.779 4.72091C36.1155 4.38453 36.098 3.9492 35.7333 3.58447C35.4716 3.3228 35.3894 3.29865 34.7609 3.29865C34.1796 3.29865 34.033 3.33415 33.8049 3.5304ZM35.8551 6.06103C35.7462 6.18199 35.6307 6.35594 35.5985 6.44747C35.5044 6.715 35.8822 7.91969 36.121 8.11301C36.4177 8.35316 36.8386 8.32833 37.1604 8.0515C37.3735 7.86826 37.4313 7.73566 37.4268 7.44036C37.4188 6.91086 37.2166 6.2563 36.9917 6.0314C36.7195 5.75917 36.1127 5.77491 35.8551 6.06103ZM37.2167 9.97236C36.8619 10.3525 36.8586 10.6266 37.2012 11.2687C37.5752 11.9696 37.7196 12.092 38.1777 12.096C38.8931 12.1024 39.1541 11.4172 38.746 10.604C38.4227 9.95994 38.1871 9.75234 37.7792 9.75234C37.5349 9.75234 37.3573 9.82187 37.2167 9.97236ZM8.77943 11.4391C8.97578 11.6131 9.96134 14.2282 13.4875 23.9309C15.9403 30.6804 18.0201 36.2847 18.1093 36.3851C18.5615 36.8935 18.9909 36.7824 19.753 35.9592C20.7306 34.9033 22.1456 34.3971 23.5599 34.5974C25.5858 34.8843 27.6535 36.6413 28.6941 38.9598C29.2919 40.292 29.4193 40.9381 29.4133 42.6075C29.4086 43.9824 29.3836 44.1965 29.1455 44.913C28.3375 47.3445 26.3135 48.6722 24.0094 48.2823C22.2313 47.9814 20.3245 46.4337 19.3072 44.4654C18.93 43.7354 7.4664 12.3734 7.4664 12.0713C7.4664 11.3678 8.26499 10.9832 8.77943 11.4391ZM23.332 11.4131C23.4676 11.5198 23.6063 11.7172 23.64 11.8517C23.685 12.0311 22.8808 14.3482 20.6275 20.5316C18.937 25.1709 17.5023 29.0988 17.4395 29.2601C17.3281 29.5461 17.3144 29.5236 16.8899 28.3565L16.4544 27.1594L19.2059 19.6049C20.7192 15.4498 22.0171 11.9065 22.0902 11.7309C22.3009 11.2243 22.8978 11.0715 23.332 11.4131ZM39.5318 13.4606C39.0743 13.918 39.1933 14.404 39.9244 15.0644C40.4181 15.5104 40.8862 15.5525 41.2549 15.1837C41.6701 14.7686 41.5898 14.3441 40.976 13.7105C40.3471 13.061 39.9926 12.9997 39.5318 13.4606ZM42.7686 16.008C42.2575 16.5191 42.4569 17.0924 43.3044 17.5478C44.0322 17.9389 44.269 17.9451 44.6315 17.5825C45.1469 17.0672 45.0014 16.5759 44.1971 16.1158C43.5761 15.7604 43.0555 15.7211 42.7686 16.008ZM25.2096 16.935C24.997 17.1476 24.9696 17.2596 24.9696 17.9172C24.9696 18.5749 24.997 18.6869 25.2096 18.8995C25.5361 19.2261 26.0653 19.2261 26.3918 18.8995C26.6045 18.6869 26.6319 18.5749 26.6319 17.9172C26.6319 17.2596 26.6045 17.1476 26.3918 16.935C26.2262 16.7693 26.0431 16.695 25.8007 16.695C25.5583 16.695 25.3753 16.7693 25.2096 16.935ZM45.2552 18.5973C45.0425 18.8099 45.0151 18.9219 45.0151 19.5796C45.0151 20.2372 45.0425 20.3492 45.2552 20.5618C45.4913 20.798 45.8928 20.8717 46.233 20.7411C46.8219 20.5151 46.8219 18.644 46.233 18.418C45.8928 18.2874 45.4913 18.3611 45.2552 18.5973ZM25.4934 20.8988C25.1136 21.0521 24.9696 21.383 24.9696 22.1023C24.9696 22.7127 24.9951 22.7981 25.2554 23.0584C25.5605 23.3635 25.8295 23.4138 26.1739 23.2305C26.5455 23.0326 26.6255 22.8317 26.6288 22.0899C26.6317 21.4265 26.6108 21.3524 26.3461 21.0877C26.0525 20.7941 25.859 20.7513 25.4934 20.8988ZM45.6018 22.5311C45.5212 22.5617 45.3562 22.6769 45.2352 22.787C45.0426 22.9622 45.0151 23.0831 45.0151 23.7569C45.0151 24.4436 45.041 24.5523 45.2552 24.7665C45.5916 25.1029 46.0269 25.0854 46.3916 24.7207C46.6533 24.459 46.6775 24.3768 46.6775 23.7483C46.6775 23.1745 46.6414 23.0213 46.4574 22.8155C46.2287 22.5596 45.8547 22.4352 45.6018 22.5311ZM21.645 27.9323V33.0092L21.3272 33.0776C20.8664 33.1768 19.8976 33.6379 19.4448 33.9737L19.0537 34.2638L18.6412 33.1585L18.2286 32.0534L19.9013 27.4543C20.8212 24.9249 21.5899 22.8553 21.6095 22.8553C21.629 22.8553 21.645 25.1399 21.645 27.9323ZM25.2273 25.2643C24.9959 25.4958 24.9696 25.595 24.9696 26.2367C24.9696 26.8475 25.0032 26.9905 25.2013 27.2207C25.3779 27.426 25.5208 27.4902 25.8007 27.4902C26.0807 27.4902 26.2236 27.426 26.4002 27.2207C26.5983 26.9905 26.6319 26.8475 26.6319 26.2367C26.6319 25.595 26.6056 25.4958 26.3741 25.2643C26.202 25.0923 26.0114 25.0065 25.8007 25.0065C25.5901 25.0065 25.3994 25.0923 25.2273 25.2643ZM45.2739 26.9086C45.0359 27.1292 45.0151 27.2107 45.0151 27.9266C45.0151 28.6812 45.0246 28.7129 45.3263 28.9667C45.7038 29.2844 46.1206 29.2464 46.4574 28.8636C46.641 28.655 46.6775 28.4997 46.6775 27.927C46.6775 27.2986 46.6533 27.2163 46.3916 26.9547C46.0325 26.5955 45.6297 26.5789 45.2739 26.9086ZM25.2096 29.4513C24.997 29.6638 24.9696 29.7758 24.9696 30.4335C24.9696 31.0912 24.997 31.2031 25.2096 31.4157C25.3753 31.5815 25.5583 31.6558 25.8007 31.6558C26.0431 31.6558 26.2262 31.5815 26.3918 31.4157C26.6045 31.2031 26.6319 31.0912 26.6319 30.4335C26.6319 29.7758 26.6045 29.6638 26.3918 29.4513C26.0653 29.1247 25.5361 29.1247 25.2096 29.4513ZM45.2552 31.1136C45.0425 31.3262 45.0151 31.4381 45.0151 32.0958C45.0151 32.7535 45.0425 32.8655 45.2552 33.078C45.4913 33.3143 45.8928 33.3879 46.233 33.2574C46.8219 33.0314 46.8219 31.1602 46.233 30.9342C45.8928 30.8037 45.4913 30.8773 45.2552 31.1136ZM9.47095 34.7407C10.1648 34.9309 10.8522 35.3847 11.4788 36.0661C11.9121 36.5373 12.0816 36.6563 12.3292 36.6634C12.863 36.6786 13.08 36.4431 13.4319 35.4674C13.6521 34.8566 13.7803 34.6154 13.8337 34.7109C13.9857 34.9825 14.6046 36.7658 14.6046 36.9323C14.6046 37.1579 12.2031 43.6985 11.8926 44.3187C11.2868 45.5284 9.95087 46.9939 8.90938 47.5912C7.64485 48.3165 6.0678 48.5382 4.94721 48.1481C3.43333 47.6212 2.34344 46.3274 1.83115 44.4489C1.60449 43.6177 1.60146 41.6385 1.82538 40.7264C2.39282 38.4156 3.77117 36.3975 5.47103 35.3889C6.88801 34.548 8.07011 34.3566 9.47095 34.7407ZM45.6018 35.0474C45.5212 35.078 45.3562 35.1932 45.2352 35.3033C45.0426 35.4784 45.0151 35.5994 45.0151 36.2731C45.0151 36.9598 45.041 37.0686 45.2552 37.2827C45.5916 37.6192 46.0269 37.6017 46.3916 37.237C46.6533 36.9753 46.6775 36.8931 46.6775 36.2646C46.6775 35.6907 46.6414 35.5376 46.4574 35.3317C46.2287 35.0759 45.8547 34.9515 45.6018 35.0474ZM7.4882 36.2531C6.10897 36.5401 4.53935 38.0975 3.82114 39.8914C3.12326 41.6348 3.0907 43.7585 3.74232 45.0358C3.98531 45.5122 4.66002 46.1843 5.1635 46.4518C5.4726 46.6159 5.73143 46.6625 6.34189 46.6638C7.02481 46.6653 7.21001 46.6248 7.80023 46.3454C9.08794 45.7356 10.281 44.2271 10.8726 42.4608C11.3806 40.9443 11.3445 39.0954 10.7844 37.9425C10.1642 36.6659 8.81854 35.9762 7.4882 36.2531ZM22.3783 36.2455C21.5533 36.4473 20.6277 37.2386 20.2754 38.0434C19.6261 39.5265 19.805 41.7747 20.7162 43.5853C21.4483 45.0401 22.6911 46.2305 23.8312 46.5691C24.9493 46.9012 26.0992 46.5864 26.8632 45.7391C28.1852 44.2729 28.187 41.4145 26.8675 39.0238C25.7781 37.0501 23.8833 35.8776 22.3783 36.2455ZM8.93393 38.2828C9.38813 38.7371 9.51857 39.181 9.51926 40.2749C9.52072 42.4943 8.05691 44.7632 6.45913 45.0182C6.04081 45.0848 5.53704 44.7397 5.21905 44.1682C5.00373 43.7815 4.97615 43.6155 4.97547 42.7053C4.97459 41.6027 5.09779 41.0923 5.6138 40.0601C6.25623 38.7749 7.26594 37.9167 8.13797 37.9148C8.50212 37.914 8.61936 37.9682 8.93393 38.2828ZM23.7543 38.1129C24.6597 38.5512 25.6391 39.9612 25.9992 41.3448C26.241 42.2735 26.1684 43.6864 25.85 44.2502C25.5889 44.7127 25.1263 45.0521 24.7572 45.0521C24.3376 45.0521 23.5242 44.565 23.0171 44.0101C22.0502 42.9523 21.4778 41.2905 21.5833 39.8476C21.7028 38.2107 22.5531 37.5314 23.7543 38.1129ZM45.2739 39.4249C45.0359 39.6455 45.0151 39.7269 45.0151 40.4429C45.0151 41.1975 45.0246 41.2292 45.3263 41.483C45.7038 41.8007 46.1206 41.7627 46.4574 41.3798C46.641 41.1713 46.6775 41.016 46.6775 40.4433C46.6775 39.8148 46.6533 39.7326 46.3916 39.4709C46.0325 39.1118 45.6297 39.0951 45.2739 39.4249ZM32.7016 40.3228C32.3963 40.7108 32.4352 41.1676 32.7998 41.4743C33.0499 41.6848 33.199 41.7275 33.6846 41.7275C34.299 41.7275 34.7808 41.5488 34.8828 41.283C35.0157 40.9365 34.942 40.4889 34.7172 40.2777C34.5232 40.0956 34.3775 40.0651 33.6975 40.0651C32.957 40.0651 32.8907 40.0823 32.7016 40.3228ZM36.9307 40.2852C36.6374 40.6111 36.5926 40.8222 36.7414 41.1783C36.9196 41.6046 37.3218 41.7629 38.0871 41.7075C38.5921 41.6709 38.7256 41.6211 38.9185 41.3969C39.2205 41.0457 39.2164 40.6134 38.9081 40.3052C38.694 40.091 38.5852 40.0651 37.8985 40.0651C37.2242 40.0651 37.1043 40.0924 36.9307 40.2852ZM41.0505 40.3052C40.7409 40.6147 40.7381 41.0457 41.0431 41.4004C41.2482 41.6389 41.3553 41.6747 41.9476 41.703C42.7173 41.74 43.0427 41.6142 43.2394 41.204C43.394 40.8817 43.3255 40.5267 43.057 40.2583C42.8968 40.098 42.7301 40.0651 42.0772 40.0651C41.3723 40.0651 41.2655 40.0901 41.0505 40.3052Z" fill="#171F25"/>
</svg>
