<svg width="50" height="50" viewBox="0 0 50 50" fill="none" xmlns="http://www.w3.org/2000/svg">
<path fill-rule="evenodd" clip-rule="evenodd" d="M21.2037 0.134258C20.7098 0.407879 20.712 0.383866 20.7083 5.64582C20.705 10.2873 20.6953 10.5577 20.534 10.494C20.0254 10.2929 19.7453 10.3349 18.584 10.7862L17.4004 11.2463L16.1991 10.7867C15.3678 10.4688 14.9071 10.3421 14.7031 10.3756C14.2067 10.4571 11.6862 11.4983 11.5568 11.6753C11.3882 11.9058 10.4493 14.33 10.3887 14.6911C10.3543 14.8962 10.4781 15.3487 10.796 16.1798L11.2528 17.3738L10.796 18.5679C10.3491 19.7361 10.3072 20.0191 10.506 20.522C10.5697 20.6834 10.3011 20.6928 5.67737 20.6928C0.366016 20.6928 0.370213 20.6924 0.126658 21.227C-0.0422194 21.5974 -0.0422194 49.0734 0.126658 49.4438C0.383587 50.0078 -0.427613 49.978 14.6526 49.978C29.7328 49.978 28.9216 50.0078 29.1785 49.4438C29.264 49.2563 29.2952 47.8819 29.2952 44.3011C29.2952 39.6865 29.3046 39.4182 29.466 39.482C29.9694 39.681 30.2519 39.6389 31.4274 39.1892L32.6287 38.7296L33.8123 39.1897C34.6476 39.5144 35.0835 39.635 35.2936 39.5998C35.7677 39.5203 38.1879 38.5472 38.3736 38.3615C38.5585 38.1765 39.5322 35.7564 39.6113 35.2848C39.6457 35.0797 39.5219 34.6273 39.204 33.7962L38.7472 32.6021L39.204 31.4081C39.6509 30.2399 39.6928 29.9569 39.494 29.454C39.4303 29.2926 39.6989 29.2831 44.3226 29.2831C49.634 29.2831 49.6298 29.2835 49.8733 28.749C50.0422 28.3785 50.0422 0.902603 49.8733 0.532146C49.6163 -0.0319835 50.4306 -0.00230792 35.3279 0.00140153C23.9852 0.00423243 21.3942 0.0286367 21.2037 0.134258ZM26.1714 6.33373V10.7171L25.6822 10.5313C25.4132 10.4291 25.1024 10.3454 24.9916 10.3454C24.8807 10.3454 24.3406 10.5211 23.7914 10.7359C23.2421 10.9506 22.7622 11.1263 22.7249 11.1263C22.6876 11.1263 22.6572 9.06174 22.6572 6.53833V1.95033H24.4143H26.1714V6.33373ZM31.638 6.40235C31.638 10.6023 31.6283 10.8507 31.4671 10.7888C30.2567 10.324 30.1089 10.2975 29.6205 10.458C29.361 10.5433 28.9181 10.706 28.6362 10.8194L28.1238 11.0259V6.48806V1.95033H29.8809H31.638V6.40235ZM37.1045 6.48806V11.0259L36.592 10.8194C36.3102 10.706 35.8672 10.5433 35.6078 10.458C35.1194 10.2975 34.9716 10.324 33.7611 10.7888C33.6 10.8507 33.5903 10.6023 33.5903 6.40235V1.95033H35.3474H37.1045V6.48806ZM42.5711 14.6406V27.3308H40.7164C39.6963 27.3308 38.8616 27.3092 38.8616 27.2829C38.8616 27.2566 39.0373 26.7729 39.2521 26.2082C39.4669 25.6435 39.6426 25.0934 39.6426 24.9859C39.6426 24.8784 39.4411 24.2639 39.1949 23.6202L38.7472 22.4499L39.1949 21.2797C39.4411 20.636 39.6426 20.0205 39.6426 19.9119C39.6426 19.8032 39.4411 19.1878 39.1949 18.5441L38.7472 17.3738L39.1949 16.2036C39.4411 15.5599 39.6411 14.934 39.6393 14.8126C39.6374 14.6911 39.5057 14.2623 39.3467 13.8596L39.0576 13.1275L39.0573 7.53891L39.0569 1.95033H40.814H42.5711V14.6406ZM48.0377 14.6406V27.3308H46.2805H44.5234V14.6406V1.95033H46.2805H48.0377V14.6406ZM16.0522 12.8346C16.6701 13.0762 17.2675 13.2739 17.3795 13.2739C17.4917 13.2739 18.1133 13.0712 18.761 12.8235L19.9385 12.373L21.0974 12.8235C21.7347 13.0712 22.347 13.2739 22.4579 13.2739C22.5687 13.2739 23.1894 13.0712 23.8371 12.8235L25.0145 12.373L26.1735 12.8235C26.8108 13.0712 27.4231 13.2739 27.5339 13.2739C27.6448 13.2739 28.2655 13.0712 28.9132 12.8235L30.0906 12.373L31.2495 12.8235C31.8869 13.0712 32.4991 13.2739 32.61 13.2739C32.7209 13.2739 33.3416 13.0713 33.9892 12.8235L35.1667 12.373L35.9984 12.6946C36.4806 12.881 36.8827 13.1011 36.9553 13.2183C37.0242 13.3294 37.1995 13.7388 37.345 14.1279L37.6095 14.8354L37.1618 16.0058C36.9155 16.6496 36.7141 17.2652 36.7141 17.3738C36.7141 17.4825 36.9155 18.098 37.1617 18.7417L37.6094 19.9119L37.1617 21.0821C36.9155 21.7258 36.7141 22.3413 36.7141 22.4499C36.7141 22.5586 36.9155 23.1741 37.1617 23.8177L37.6094 24.988L37.1617 26.1582C36.9155 26.8019 36.7141 27.4174 36.7141 27.526C36.7141 27.6347 36.9155 28.2502 37.1617 28.8938L37.6094 30.0641L37.1617 31.2343C36.9155 31.878 36.7141 32.4935 36.7141 32.6021C36.7141 32.7108 36.9155 33.3263 37.1618 33.9701L37.6095 35.1406L37.345 35.8481C37.1995 36.2372 37.0242 36.6466 36.9553 36.7577C36.8827 36.8748 36.4806 37.0949 35.9984 37.2814L35.1667 37.6029L33.9892 37.1524C33.3416 36.9047 32.7209 36.702 32.61 36.702C32.4991 36.702 31.8856 36.9052 31.2467 37.1535C30.1073 37.5965 30.078 37.6023 29.7145 37.4573L29.344 37.3095L29.2952 29.3184C29.2443 20.9949 29.2461 21.0274 28.8342 20.8264C28.7387 20.7797 25.0646 20.7197 20.6696 20.6928L12.6785 20.644L12.5335 20.2806C12.3925 19.9267 12.4004 19.8864 12.8373 18.7443C13.0841 18.0992 13.2859 17.4825 13.2859 17.3738C13.2859 17.2652 13.0848 16.6503 12.8388 16.0074L12.3917 14.8385L12.7046 14.0092C12.8768 13.553 13.0692 13.137 13.1323 13.0846C13.2632 12.976 14.643 12.4183 14.8151 12.4044C14.8776 12.3995 15.4343 12.593 16.0522 12.8346ZM27.3428 35.3354V48.0256H14.6526H1.96235V35.3354V22.6452H14.6526H27.3428V35.3354ZM7.65421 25.1842C7.34447 25.3089 7.11654 25.7097 7.11654 26.1294C7.11654 26.6092 7.56333 27.0379 8.06342 27.0379C8.56351 27.0379 9.01031 26.6092 9.01031 26.1294C9.01031 25.358 8.35559 24.9016 7.65421 25.1842ZM12.047 25.1842C11.7372 25.3089 11.5093 25.7097 11.5093 26.1294C11.5093 26.6092 11.9561 27.0379 12.4562 27.0379C12.9563 27.0379 13.4031 26.6092 13.4031 26.1294C13.4031 25.358 12.7484 24.9016 12.047 25.1842ZM16.4398 25.1842C16.13 25.3089 15.9021 25.7097 15.9021 26.1294C15.9021 26.6092 16.3489 27.0379 16.849 27.0379C17.3491 27.0379 17.7959 26.6092 17.7959 26.1294C17.7959 25.358 17.1411 24.9016 16.4398 25.1842ZM20.8325 25.1842C20.5228 25.3089 20.2949 25.7097 20.2949 26.1294C20.2949 26.6092 20.7416 27.0379 21.2417 27.0379C21.7418 27.0379 22.1886 26.6092 22.1886 26.1294C22.1886 25.358 21.5339 24.9016 20.8325 25.1842ZM5.1762 30.0566C4.79061 30.4421 4.7868 30.9207 5.16575 31.3449C5.39476 31.6012 5.512 31.6526 5.86704 31.6526C6.22207 31.6526 6.33931 31.6012 6.56832 31.3449C6.94727 30.9207 6.94346 30.4421 6.55787 30.0566C6.33404 29.8328 6.18507 29.7712 5.86704 29.7712C5.549 29.7712 5.40004 29.8328 5.1762 30.0566ZM9.56897 30.0566C9.18338 30.4421 9.17958 30.9207 9.55853 31.3449C9.78754 31.6012 9.90477 31.6526 10.2598 31.6526C10.6148 31.6526 10.7321 31.6012 10.9611 31.3449C11.34 30.9207 11.3362 30.4421 10.9506 30.0566C10.7268 29.8328 10.5778 29.7712 10.2598 29.7712C9.94177 29.7712 9.79281 29.8328 9.56897 30.0566ZM13.9617 30.0566C13.5762 30.4421 13.5723 30.9207 13.9513 31.3449C14.1803 31.6012 14.2975 31.6526 14.6526 31.6526C15.0076 31.6526 15.1249 31.6012 15.3539 31.3449C15.7328 30.9207 15.729 30.4421 15.3434 30.0566C15.1196 29.8328 14.9706 29.7712 14.6526 29.7712C14.3345 29.7712 14.1856 29.8328 13.9617 30.0566ZM18.3545 30.0566C17.9689 30.4421 17.9651 30.9207 18.3441 31.3449C18.5731 31.6012 18.6903 31.6526 19.0454 31.6526C19.4004 31.6526 19.5176 31.6012 19.7466 31.3449C20.1256 30.9207 20.1218 30.4421 19.7362 30.0566C19.5124 29.8328 19.3634 29.7712 19.0454 29.7712C18.7273 29.7712 18.5784 29.8328 18.3545 30.0566ZM22.7473 30.0566C22.3617 30.4421 22.3579 30.9207 22.7368 31.3449C22.9659 31.6012 23.0831 31.6526 23.4381 31.6526C23.7932 31.6526 23.9104 31.6012 24.1394 31.3449C24.5184 30.9207 24.5145 30.4421 24.129 30.0566C23.9051 29.8328 23.7562 29.7712 23.4381 29.7712C23.1201 29.7712 22.9711 29.8328 22.7473 30.0566ZM7.42139 34.6446C6.81382 35.2521 7.22186 36.3116 8.06342 36.3116C8.32748 36.3116 8.49421 36.2375 8.70545 36.0262C9.31302 35.4187 8.90498 34.3592 8.06342 34.3592C7.79937 34.3592 7.63264 34.4333 7.42139 34.6446ZM11.8142 34.6446C11.2066 35.2521 11.6146 36.3116 12.4562 36.3116C12.7202 36.3116 12.887 36.2375 13.0982 36.0262C13.7058 35.4187 13.2978 34.3592 12.4562 34.3592C12.1921 34.3592 12.0254 34.4333 11.8142 34.6446ZM16.2069 34.6446C15.5994 35.2521 16.0074 36.3116 16.849 36.3116C17.113 36.3116 17.2798 36.2375 17.491 36.0262C18.0986 35.4187 17.6905 34.3592 16.849 34.3592C16.5849 34.3592 16.4182 34.4333 16.2069 34.6446ZM20.5997 34.6446C19.9921 35.2521 20.4002 36.3116 21.2417 36.3116C21.5058 36.3116 21.6725 36.2375 21.8838 36.0262C22.4913 35.4187 22.0833 34.3592 21.2417 34.3592C20.9777 34.3592 20.811 34.4333 20.5997 34.6446ZM5.60191 39.0182C5.2661 39.0793 4.89086 39.5907 4.89086 39.9872C4.89086 40.2347 4.96954 40.4076 5.1762 40.6142C6.05778 41.4958 7.42872 40.2552 6.57476 39.3486C6.29928 39.0563 5.98301 38.9488 5.60191 39.0182ZM9.99468 39.0182C9.65888 39.0793 9.28364 39.5907 9.28364 39.9872C9.28364 40.2347 9.36232 40.4076 9.56897 40.6142C10.4506 41.4958 11.8215 40.2552 10.9675 39.3486C10.6921 39.0563 10.3758 38.9488 9.99468 39.0182ZM14.3875 39.0182C14.0516 39.0793 13.6764 39.5907 13.6764 39.9872C13.6764 40.2347 13.7551 40.4076 13.9617 40.6142C14.8433 41.4958 16.2143 40.2552 15.3603 39.3486C15.0848 39.0563 14.7685 38.9488 14.3875 39.0182ZM18.7802 39.0182C18.4444 39.0793 18.0692 39.5907 18.0692 39.9872C18.0692 40.2347 18.1479 40.4076 18.3545 40.6142C19.2361 41.4958 20.607 40.2552 19.7531 39.3486C19.4776 39.0563 19.1613 38.9488 18.7802 39.0182ZM23.173 39.0182C22.8372 39.0793 22.462 39.5907 22.462 39.9872C22.462 40.2347 22.5406 40.4076 22.7473 40.6142C23.6289 41.4958 24.9998 40.2552 24.1458 39.3486C23.8704 39.0563 23.5541 38.9488 23.173 39.0182ZM7.42071 43.9046C6.86117 44.4046 7.09721 45.3398 7.82875 45.5212C8.48132 45.6828 9.01031 45.2442 9.01031 44.5414C9.01031 44.0616 8.56351 43.6329 8.06342 43.6329C7.831 43.6329 7.62951 43.7181 7.42071 43.9046ZM11.8135 43.9046C11.2539 44.4046 11.49 45.3398 12.2215 45.5212C12.8741 45.6828 13.4031 45.2442 13.4031 44.5414C13.4031 44.0616 12.9563 43.6329 12.4562 43.6329C12.2238 43.6329 12.0223 43.7181 11.8135 43.9046ZM16.2063 43.9046C15.6467 44.4046 15.8828 45.3398 16.6143 45.5212C17.2669 45.6828 17.7959 45.2442 17.7959 44.5414C17.7959 44.0616 17.3491 43.6329 16.849 43.6329C16.6165 43.6329 16.4151 43.7181 16.2063 43.9046ZM20.599 43.9046C20.0395 44.4046 20.2755 45.3398 21.0071 45.5212C21.6596 45.6828 22.1886 45.2442 22.1886 44.5414C22.1886 44.0616 21.7418 43.6329 21.2417 43.6329C21.0093 43.6329 20.8078 43.7181 20.599 43.9046Z" fill="#171F25"/>
</svg>
