<svg width="50" height="50" viewBox="0 0 50 50" fill="none" xmlns="http://www.w3.org/2000/svg">
<path fill-rule="evenodd" clip-rule="evenodd" d="M23.9281 0.141864C22.4416 0.541376 21.1765 1.97722 21.0259 3.43581L20.9688 3.98923H21.7618C22.5475 3.98923 22.5555 3.98669 22.6144 3.72067C22.9062 2.40251 23.7751 1.64743 25 1.64743C26.8209 1.64743 27.9607 3.56149 27.0912 5.15915C26.6942 5.88854 25.8346 6.42722 25.0587 6.43278C24.8921 6.43395 24.646 6.51931 24.5117 6.62233C24.3016 6.78366 24.2607 6.90827 24.2188 7.51823L24.1699 8.22663L21.4501 8.90544C18.4628 9.65104 18.5591 9.64987 18.5562 8.94089C18.5541 8.43356 18.21 8.0904 17.7046 8.09186C17.5008 8.09235 15.341 8.45895 12.9052 8.90641L8.47637 9.71999L4.23818 13.9614C0.29873 17.904 0 18.2265 0 18.5382C0 18.8487 0.255078 19.1289 3.44268 22.3201C7.60996 26.492 7.1209 26.2613 8.64873 24.7749L9.66797 23.7832V26.3782V28.9732L6.4209 29.0097C3.33115 29.0444 3.14707 29.0568 2.62178 29.2653C1.55322 29.6895 0.69668 30.5468 0.278125 31.611C0.110156 32.0381 0.0595703 32.3731 0.0548828 33.0908C0.0494141 33.9331 0.0766601 34.077 0.35127 34.6533C0.517676 35.0024 0.860352 35.5167 1.11289 35.796L1.57207 36.3039L1.18662 36.6893C-0.36084 38.2368 -0.378906 40.6547 1.14473 42.2836L1.5877 42.7571L1.19414 43.139C0.0073242 44.2909 -0.323242 46.0979 0.378711 47.5978C0.914648 48.7433 1.9626 49.6113 3.13623 49.8818C3.41455 49.946 8.75449 49.9814 18.3887 49.983C31.0798 49.9849 33.2508 49.9652 33.4766 49.8453C33.7943 49.6764 40.0705 43.3862 40.2241 43.0826C40.3007 42.9312 40.332 40.0991 40.332 33.3262V23.7832L41.3513 24.7749C42.8776 26.2599 42.3882 26.4906 46.5561 22.3226C49.7602 19.1186 50 18.8551 50 18.5397C50 18.2228 49.7207 17.9223 45.7275 13.942L41.4551 9.68317L37.0117 8.88474C34.5679 8.44557 32.4235 8.08727 32.2466 8.08854C31.7919 8.09177 31.4458 8.45925 31.4438 8.94089C31.4409 9.64987 31.5372 9.65104 28.5499 8.90505C26.6912 8.44089 25.8301 8.18464 25.8301 8.09587C25.8301 8.02438 26.0167 7.91081 26.2447 7.84343C26.4729 7.77604 26.8771 7.58142 27.143 7.41071C29.3366 6.003 29.6486 2.93933 27.7829 1.12731C26.7675 0.141181 25.3138 -0.230499 23.9281 0.141864ZM28.0612 10.4641L30.8783 11.1716L30.3339 11.8674C29.034 13.5287 27.2658 14.3525 25 14.3525C22.734 14.3525 20.966 13.5287 19.6659 11.8672L19.1213 11.1712L21.8897 10.4701C23.4124 10.0845 24.79 9.76618 24.9512 9.76276C25.1123 9.75935 26.5118 10.075 28.0612 10.4641ZM17.0458 10.1172C17.6055 12.7411 19.7722 14.8883 22.7051 15.7257C23.8135 16.0421 26.1397 16.0417 27.2896 15.7247C30.0338 14.9684 32.2243 12.9083 32.8468 10.4983C32.9278 10.1842 33.0147 9.90681 33.0398 9.88171C33.0649 9.85661 34.8147 10.1492 36.9284 10.532L40.7715 11.2278L44.4091 14.859L48.0467 18.49L45.3863 21.1517L42.726 23.8134L40.2344 21.3232C38.864 19.9536 37.6977 18.833 37.6425 18.833C37.5873 18.833 37.303 19.0751 37.0108 19.371L36.4796 19.909L37.5757 21.0083L38.6719 22.1075V31.9937V41.8799H35.9032C34.1288 41.8799 33.0231 41.9187 32.8241 41.9881C32.2536 42.187 32.2266 42.3453 32.2266 45.4883V48.3252H28.6066H24.9867L25.2017 48.0232C25.5217 47.5739 25.7812 46.6322 25.7812 45.9208C25.7812 44.8587 25.3016 43.7481 24.5252 43.0126L24.2261 42.7293L24.7144 42.1951C25.2746 41.582 25.466 41.2474 25.6488 40.5615C26.0225 39.1593 25.5695 37.5445 24.5288 36.568L24.2276 36.2854L24.7479 35.7106C25.3901 35.0009 25.6913 34.2743 25.7562 33.2778C25.8377 32.0274 25.4253 30.9762 24.5215 30.1308C23.961 29.6066 23.2892 29.2499 22.5782 29.099C22.2309 29.0254 20.2957 28.9892 16.6944 28.9892H11.3281V25.5484V22.1075L12.4243 21.0083L13.5204 19.909L12.9892 19.371C12.697 19.0751 12.4127 18.833 12.3575 18.833C12.3023 18.833 11.136 19.9536 9.76562 21.3232L7.27402 23.8134L4.61367 21.1517L1.95332 18.49L5.59092 14.8588L9.22852 11.2274L12.9395 10.547C14.9805 10.1728 16.7265 9.86257 16.8194 9.85759C16.9283 9.85183 17.0088 9.94411 17.0458 10.1172ZM22.5674 30.7833C23.5182 31.1231 24.1455 32.0213 24.1455 33.0424C24.1455 34.0603 23.6491 34.8218 22.7051 35.2522C22.3356 35.4206 21.8023 35.4302 12.8906 35.4302C3.97236 35.4302 3.4457 35.4207 3.07402 35.2518C2.57256 35.024 2.0707 34.5221 1.84287 34.0207C1.60732 33.5021 1.60762 32.5811 1.84355 32.0616C2.05566 31.5947 2.7915 30.917 3.24365 30.7721C3.75156 30.6093 22.1105 30.62 22.5674 30.7833ZM3.22266 33.042V33.872H12.8906H22.5586V33.042V32.2119H12.8906H3.22266V33.042ZM22.5479 37.2374C23.168 37.4561 23.602 37.8423 23.8902 38.4314C24.4995 39.6767 24.0267 41.0806 22.8067 41.6487L22.3145 41.8779L12.9119 41.8789C4.92109 41.8798 3.4585 41.8586 3.1707 41.7383C2.22705 41.3441 1.66016 40.5092 1.66016 39.5138C1.66016 38.5127 2.14072 37.7709 3.07617 37.3278L3.56445 37.0966L12.8539 37.0957C20.7539 37.0948 22.2039 37.1161 22.5479 37.2374ZM3.22266 39.4873V40.3174H12.5H21.7773V39.4873V38.6572H12.5H3.22266V39.4873ZM22.7852 43.7741C23.6305 44.1939 24.1557 45.0463 24.147 45.984C24.138 46.9545 23.6222 47.747 22.7576 48.1189L22.2716 48.328L12.7639 48.3022L3.25605 48.2763L2.77813 47.9808C2.10889 47.567 1.72871 46.9265 1.67773 46.1272C1.65625 45.7888 1.69268 45.3487 1.75879 45.1482C1.97129 44.5044 2.67812 43.8576 3.41738 43.6305C3.55195 43.5891 7.88086 43.5629 13.0371 43.572C22.0283 43.5882 22.4273 43.5965 22.7852 43.7741ZM37.5 43.5654C37.5 43.5794 36.687 44.4029 35.6934 45.3955L33.8867 47.2002V45.3701V43.54H35.6934C36.687 43.54 37.5 43.5514 37.5 43.5654ZM3.22266 45.9326V46.7627H12.5H21.7773V45.9326V45.1025H12.5H3.22266V45.9326Z" fill="#171F25"/>
</svg>
